<svg width="790" height="182" viewBox="0 0 790 182" fill="none" xmlns="http://www.w3.org/2000/svg">
<path d="M0.500001 178V4.75H105V25.5H24.75V77.75H96V98.25H24.75V178H0.500001ZM134.777 178V4.75H240.527V25.5H159.027V77H231.527V97.25H159.027V157.25H246.777V178H134.777ZM263.52 91.25C263.52 76.4167 265.686 63.3333 270.02 52C274.52 40.6667 280.52 31.25 288.02 23.75C295.686 16.0833 304.52 10.3333 314.52 6.49999C324.686 2.66665 335.436 0.749987 346.77 0.749987C357.936 0.749987 368.436 2.66665 378.27 6.49999C388.27 10.3333 397.02 16.0833 404.52 23.75C412.02 31.25 417.936 40.6667 422.27 52C426.77 63.3333 429.02 76.4167 429.02 91.25C429.02 106.083 426.77 119.167 422.27 130.5C417.936 141.833 412.02 151.333 404.52 159C397.02 166.5 388.27 172.167 378.27 176C368.436 179.833 357.936 181.75 346.77 181.75C335.436 181.75 324.686 179.833 314.52 176C304.52 172.167 295.686 166.5 288.02 159C280.52 151.333 274.52 141.833 270.02 130.5C265.686 119.167 263.52 106.083 263.52 91.25ZM289.02 91.25C289.02 101.75 290.353 111.333 293.02 120C295.686 128.5 299.436 135.75 304.27 141.75C309.27 147.75 315.27 152.417 322.27 155.75C329.436 158.917 337.436 160.5 346.27 160.5C355.103 160.5 363.02 158.917 370.02 155.75C377.02 152.417 382.936 147.75 387.77 141.75C392.77 135.75 396.603 128.5 399.27 120C401.936 111.333 403.27 101.75 403.27 91.25C403.27 80.75 401.936 71.25 399.27 62.75C396.603 54.0833 392.77 46.75 387.77 40.75C382.936 34.75 377.02 30.1667 370.02 27C363.02 23.6667 355.103 22 346.27 22C337.436 22 329.436 23.6667 322.27 27C315.27 30.1667 309.27 34.75 304.27 40.75C299.436 46.75 295.686 54.0833 293.02 62.75C290.353 71.25 289.02 80.75 289.02 91.25ZM569.35 157V178H465.1V4.75H489.35V157H569.35ZM594.738 4.75H618.988V178H594.738V4.75ZM736.377 181.75C724.21 181.75 713.127 179.75 703.127 175.75C693.127 171.75 684.544 165.917 677.377 158.25C670.21 150.583 664.627 141.167 660.627 130C656.794 118.667 654.877 105.75 654.877 91.25C654.877 76.75 657.044 63.9167 661.377 52.75C665.877 41.4167 671.877 31.9167 679.377 24.25C686.877 16.5833 695.627 10.75 705.627 6.74998C715.627 2.74999 726.294 0.749987 737.627 0.749987C744.794 0.749987 751.21 1.24999 756.877 2.25C762.71 3.24999 767.71 4.41666 771.877 5.75C776.21 7.08332 779.71 8.41665 782.377 9.74999C785.044 11.0833 786.877 12.0833 787.877 12.75L780.877 32.75C779.377 31.75 777.21 30.6667 774.377 29.5C771.544 28.3333 768.294 27.1667 764.627 26C761.127 24.8333 757.21 23.9167 752.877 23.25C748.71 22.4167 744.46 22 740.127 22C730.96 22 722.71 23.5833 715.377 26.75C708.044 29.9167 701.794 34.5 696.627 40.5C691.46 46.5 687.46 53.8333 684.627 62.5C681.96 71 680.627 80.5833 680.627 91.25C680.627 101.583 681.794 111 684.127 119.5C686.627 128 690.294 135.333 695.127 141.5C699.96 147.5 705.96 152.167 713.127 155.5C720.46 158.833 728.96 160.5 738.627 160.5C749.794 160.5 759.044 159.333 766.377 157C773.71 154.667 779.21 152.583 782.877 150.75L789.127 170.75C787.96 171.583 785.877 172.667 782.877 174C779.877 175.167 776.127 176.333 771.627 177.5C767.127 178.667 761.877 179.667 755.877 180.5C749.877 181.333 743.377 181.75 736.377 181.75Z" fill="white" fill-opacity="0.16"/>
</svg>
