<svg id="Capa_1" enable-background="new 0 0 512 512" height="512" viewBox="0 0 512 512" width="512" xmlns="http://www.w3.org/2000/svg" xmlns:xlink="http://www.w3.org/1999/xlink"><linearGradient id="SVGID_1_" gradientUnits="userSpaceOnUse" x1="256" x2="256" y1="512" y2="0"><stop offset="0" stop-color="#addcff"/><stop offset=".5028" stop-color="#eaf6ff"/><stop offset="1" stop-color="#eaf6ff"/></linearGradient><linearGradient id="SVGID_2_" gradientUnits="userSpaceOnUse" x1="256" x2="256" y1="407" y2="105"><stop offset="0" stop-color="#00c0ff"/><stop offset="1" stop-color="#5558ff"/></linearGradient><g><g><circle cx="256" cy="256" fill="url(#SVGID_1_)" r="256"/></g><g><g><path d="m267.485 253.398-28.868-28.868-40.959 46.086 37.455-14.052c3.276-1.221 6.943-.421 9.403 2.039l28.868 28.868 40.959-46.086-37.455 14.052c-3.279 1.214-6.94.424-9.403-2.039zm-11.485-148.398c-83.255 0-151 67.737-151 151 0 28.989 8.171 56.963 23.68 81.216l-23.039 57.605c-1.318 3.296-.555 7.061 1.96 9.576 2.566 2.566 6.365 3.259 9.576 1.969l57.614-23.047c24.237 15.51 52.22 23.681 81.209 23.681 83.255 0 151-67.737 151-151s-67.745-151-151-151zm95.468 121.369-71.059 79.941c-1.665 1.869-4.069 2.984-6.645 2.984-2.359 0-4.615-.937-6.28-2.602l-31.487-31.487-65.698 24.643c-3.852 1.431-8.136.069-10.444-3.296-2.307-3.366-2.03-7.867.677-10.921l71.059-79.941c1.631-1.83 3.938-2.906 6.384-2.984 2.567-.026 4.823.876 6.54 2.602l31.487 31.487 65.698-24.643c3.817-1.431 8.119-.087 10.444 3.296 2.308 3.366 2.03 7.868-.676 10.921z" fill="url(#SVGID_2_)"/></g></g></g></svg>