<svg width="322" height="322" viewBox="0 0 322 322" fill="none" xmlns="http://www.w3.org/2000/svg">
<circle cx="7" cy="7" r="7" fill="#D2D2D2"/>
<circle cx="51" cy="7" r="7" fill="#D2D2D2"/>
<circle cx="95" cy="7" r="7" fill="#D2D2D2"/>
<circle cx="139" cy="7" r="7" fill="#D2D2D2"/>
<circle cx="183" cy="7" r="7" fill="#D2D2D2"/>
<circle cx="227" cy="7" r="7" fill="#D2D2D2"/>
<circle cx="271" cy="7" r="7" fill="#D2D2D2"/>
<circle cx="315" cy="7" r="7" fill="#D2D2D2"/>
<circle cx="7" cy="51" r="7" fill="#D2D2D2"/>
<circle cx="51" cy="51" r="7" fill="#D2D2D2"/>
<circle cx="95" cy="51" r="7" fill="#D2D2D2"/>
<circle cx="139" cy="51" r="7" fill="#D2D2D2"/>
<circle cx="183" cy="51" r="7" fill="#D2D2D2"/>
<circle cx="227" cy="51" r="7" fill="#D2D2D2"/>
<circle cx="271" cy="51" r="7" fill="#D2D2D2"/>
<circle cx="315" cy="51" r="7" fill="#D2D2D2"/>
<circle cx="7" cy="95" r="7" fill="#D2D2D2"/>
<circle cx="51" cy="95" r="7" fill="#D2D2D2"/>
<circle cx="95" cy="95" r="7" fill="#D2D2D2"/>
<circle cx="139" cy="95" r="7" fill="#D2D2D2"/>
<circle cx="183" cy="95" r="7" fill="#D2D2D2"/>
<circle cx="227" cy="95" r="7" fill="#D2D2D2"/>
<circle cx="271" cy="95" r="7" fill="#D2D2D2"/>
<circle cx="315" cy="95" r="7" fill="#D2D2D2"/>
<circle cx="7" cy="139" r="7" fill="#D2D2D2"/>
<circle cx="51" cy="139" r="7" fill="#D2D2D2"/>
<circle cx="95" cy="139" r="7" fill="#D2D2D2"/>
<circle cx="139" cy="139" r="7" fill="#D2D2D2"/>
<circle cx="183" cy="139" r="7" fill="#D2D2D2"/>
<circle cx="227" cy="139" r="7" fill="#D2D2D2"/>
<circle cx="271" cy="139" r="7" fill="#D2D2D2"/>
<circle cx="315" cy="139" r="7" fill="#D2D2D2"/>
<circle cx="7" cy="183" r="7" fill="#D2D2D2"/>
<circle cx="51" cy="183" r="7" fill="#D2D2D2"/>
<circle cx="95" cy="183" r="7" fill="#D2D2D2"/>
<circle cx="139" cy="183" r="7" fill="#D2D2D2"/>
<circle cx="183" cy="183" r="7" fill="#D2D2D2"/>
<circle cx="227" cy="183" r="7" fill="#D2D2D2"/>
<circle cx="271" cy="183" r="7" fill="#D2D2D2"/>
<circle cx="315" cy="183" r="7" fill="#D2D2D2"/>
<circle cx="7" cy="227" r="7" fill="#D2D2D2"/>
<circle cx="51" cy="227" r="7" fill="#D2D2D2"/>
<circle cx="95" cy="227" r="7" fill="#D2D2D2"/>
<circle cx="139" cy="227" r="7" fill="#D2D2D2"/>
<circle cx="183" cy="227" r="7" fill="#D2D2D2"/>
<circle cx="227" cy="227" r="7" fill="#D2D2D2"/>
<circle cx="271" cy="227" r="7" fill="#D2D2D2"/>
<circle cx="315" cy="227" r="7" fill="#D2D2D2"/>
<circle cx="7" cy="271" r="7" fill="#D2D2D2"/>
<circle cx="51" cy="271" r="7" fill="#D2D2D2"/>
<circle cx="95" cy="271" r="7" fill="#D2D2D2"/>
<circle cx="139" cy="271" r="7" fill="#D2D2D2"/>
<circle cx="183" cy="271" r="7" fill="#D2D2D2"/>
<circle cx="227" cy="271" r="7" fill="#D2D2D2"/>
<circle cx="271" cy="271" r="7" fill="#D2D2D2"/>
<circle cx="315" cy="271" r="7" fill="#D2D2D2"/>
<circle cx="7" cy="315" r="7" fill="#D2D2D2"/>
<circle cx="51" cy="315" r="7" fill="#D2D2D2"/>
<circle cx="95" cy="315" r="7" fill="#D2D2D2"/>
<circle cx="139" cy="315" r="7" fill="#D2D2D2"/>
<circle cx="183" cy="315" r="7" fill="#D2D2D2"/>
<circle cx="227" cy="315" r="7" fill="#D2D2D2"/>
<circle cx="271" cy="315" r="7" fill="#D2D2D2"/>
<circle cx="315" cy="315" r="7" fill="#D2D2D2"/>
</svg>
