<svg width="600" height="518" viewBox="0 0 600 518" fill="none" xmlns="http://www.w3.org/2000/svg">
<g clip-path="url(#clip0)">
<path d="M35.3787 302.587C35.3787 302.587 -58.5617 200.306 59.8488 151.956C118.899 127.85 132.788 115.462 178.668 68.8062C244.335 2.00944 330.401 -36.5935 442.289 81.1708C554.176 198.935 638.613 235.459 564.949 306.067C482.147 385.436 532.518 426.249 522.136 448.622C519.373 454.574 501.872 429.121 463.333 455.328C375.557 515.019 330.885 424.209 266.333 446.859C205.449 468.224 174.164 420.967 154.347 439.445C124.791 467.015 106.299 466.661 95.1911 459.409C85.8986 453.326 80.4285 440.769 80.8559 427.612C81.3453 412.66 81.4321 384.659 76.5814 364.279C69.2466 333.476 51.3989 317.723 35.3787 302.587Z" fill="#F5F5FC"/>
<path d="M36.426 303.826C36.426 303.826 -58.4127 199.319 61.1192 149.922C120.709 125.285 134.734 112.636 181.029 64.9558C247.315 -3.29604 334.162 -42.7381 447.072 77.5899C559.981 197.918 647.949 240.039 570.866 307.375C517.484 354.008 535.554 331.242 518.927 347.225C483.616 381.101 403.304 317.453 338.152 340.596C276.704 362.423 216.929 329.818 190.228 327.608C179.647 326.746 136.952 326.546 115.443 325.114C103.406 324.344 90.1364 330.865 73.4595 325.945C48.3265 318.531 52.5887 319.301 36.426 303.826Z" fill="#F8F8FF"/>
<path d="M138.339 109.534L107.551 135.287C107.148 135.588 106.435 130.152 106.002 130.383L85.038 140.392L84.7964 327.424L215.838 325.422L214.841 71.932L174.989 72.3862L138.339 109.534Z" fill="#E9EDFB"/>
<path d="M128.192 115.616L96.1208 135.149L96.0403 140.369L202.922 139.599L202.495 91.7878L156.404 91.0179L146.071 100.842C144.262 102.543 142.05 104.353 139.256 106.662C134.623 110.473 131.822 113.022 128.192 115.616Z" fill="#C5CFD6"/>
<path d="M96.0959 148.199V195.417L203.077 195.147L203.083 148.199H96.0959Z" fill="#C5CFD6"/>
<path d="M96.3933 203.832V251.058L203.368 250.788L203.374 203.832H96.3933Z" fill="#C5CFD6"/>
<path d="M96.9819 260.281V307.507L203.957 307.237L203.963 260.281H96.9819Z" fill="#C5CFD6"/>
<path d="M133.322 230.671L138.339 222.51L156.98 243.143L152.315 251.543L133.322 230.671Z" fill="white"/>
<path d="M96.3623 213.047L108.43 213.132L108.523 251.15L96.3809 250.965L96.3623 213.047Z" fill="white"/>
<path d="M122.765 219.522L127.684 216.027L140.297 247.316L135.378 251.435L122.765 219.522Z" fill="#F5F5FC"/>
<path d="M116.93 208.905H122.796L122.945 251.289L116.917 251.096L116.93 208.905Z" fill="white"/>
<path d="M108.511 221.832L117.06 222.025L116.917 251.188L108.362 251.027L108.511 221.832Z" fill="#F5F5FC"/>
<path d="M155.301 212.94L167.369 213.024L167.456 251.042L155.32 250.857L155.301 212.94Z" fill="white"/>
<path d="M175.869 208.798H181.729L181.878 251.181L175.856 250.988L175.869 208.798Z" fill="white"/>
<path d="M167.45 221.732L175.999 221.917L175.856 251.088L167.295 250.919L167.45 221.732Z" fill="#F5F5FC"/>
<path d="M96.988 264.215L106.2 264.315L106.268 307.899L97.0004 307.684L96.988 264.215Z" fill="white"/>
<path d="M106.231 270.79L112.469 270.69L112.246 307.699L106.082 307.692L106.231 270.79Z" fill="#F5F5FC"/>
<path d="M112.469 278.404L120.926 278.543L120.789 307.715L112.228 307.545L112.469 278.404Z" fill="white"/>
<path d="M164.464 134.055V139.483L198.691 139.784V134.055H164.464Z" fill="#F5F5FC"/>
<path d="M164.414 129.752L164.575 134.094L186.84 134.294L186.691 129.552L164.414 129.752Z" fill="white"/>
<path d="M96.1642 157.353L108.232 157.445L108.325 195.463L96.189 195.27L96.1642 157.353Z" fill="white"/>
<path d="M190.129 163.45L185.043 159.947L172.021 191.244L177.101 195.355L190.129 163.45Z" fill="#F5F5FC"/>
<path d="M197.346 152.818H203.207L203.356 195.193L197.334 195.009L197.346 152.818Z" fill="white"/>
<path d="M189.293 165.991L197.842 166.176L197.7 195.347L189.144 195.178L189.293 165.991Z" fill="#F5F5FC"/>
<path d="M131.711 189.866V195.294L165.938 195.594V189.866H131.711Z" fill="#F5F5FC"/>
<path d="M137.082 185.423L137.249 189.758L159.514 189.958L159.365 185.223L137.082 185.423Z" fill="white"/>
<path d="M461.859 381.595C461.859 381.595 451.575 396.669 460 397.085C468.426 397.501 485.71 409.65 489.018 398.763C492.326 387.877 498.93 382.434 494.897 381.179C490.864 379.924 487.184 374.896 478.734 375.736C470.284 376.575 461.859 381.595 461.859 381.595Z" fill="#F5F5FC"/>
<path d="M459.17 308.207C459.17 308.207 454.351 308.854 454.351 316.268C454.351 323.682 457.448 387.969 469.218 389.232C476.869 390.056 484.966 390.002 488.968 389.525C490.696 389.317 492.394 382.826 492.685 380.224C494.24 367.451 496.241 336.34 496.681 318.216C496.768 314.559 494.742 309.655 493.682 308.454C487.834 301.817 459.17 308.207 459.17 308.207Z" fill="#E4E4E4"/>
<path d="M516.127 183.937C514.268 181.789 511.679 184.707 512.664 187.741C513.599 190.643 514.25 195.686 510.502 201.091C504.685 209.475 483.702 237.808 483.913 256.023C484.124 274.239 479.577 279.321 483.913 286.257C488.25 293.194 505.726 292.917 510.297 278.173C514.869 263.43 526.466 257.471 526.243 236.376C526.02 215.28 523.988 206.011 521.907 198.789C520.618 194.208 518.562 186.771 516.127 183.937Z" fill="#E9EDFB"/>
<path d="M484.34 305.474C484.34 305.474 486.199 272.453 506.964 258.079C519.974 249.071 520.854 217.805 517.744 210.738" stroke="white" stroke-width="0.886462" stroke-linecap="round" stroke-linejoin="round"/>
<path d="M487.004 319.34C487.004 319.34 493.546 351.845 486.459 377.583L487.004 319.34Z" fill="#DDE3E9"/>
<path d="M501.959 176.747C499.983 174.691 497.195 177.463 498.242 180.38C499.246 183.16 499.939 187.979 495.925 193.145C489.693 201.168 467.218 228.268 467.428 245.691C467.639 263.114 467.428 273.346 472.099 279.983C476.77 286.619 487.587 281.292 492.462 267.187C497.338 253.082 513.017 247.077 512.794 226.883C512.571 206.688 510.378 197.842 508.154 190.928C506.773 186.571 504.561 179.457 501.959 176.747Z" fill="#DDE3E9"/>
<path d="M475.668 306.152C475.668 306.152 468.358 261.228 486.156 234.266C493.274 223.487 503.83 201.838 503.737 191.398" stroke="white" stroke-width="0.886462" stroke-linecap="round" stroke-linejoin="round"/>
<path d="M446.489 183.937C448.317 181.789 450.9 184.707 449.928 187.741C448.998 190.643 448.354 195.686 452.071 201.091C457.838 209.475 478.647 237.808 478.443 256.023C478.238 274.239 478.443 284.933 474.106 291.878C469.77 298.822 459.79 293.248 455.255 278.505C450.72 263.761 436.237 257.471 436.416 236.376C436.596 215.28 438.653 206.011 440.716 198.789C442.041 194.208 444.079 186.771 446.489 183.937Z" fill="#E9EDFB"/>
<path d="M469.869 306.968C469.869 306.968 478.245 266.163 461.766 239.216C455.175 228.438 444.618 212.455 444.705 202.015" stroke="white" stroke-width="0.886462" stroke-linecap="round" stroke-linejoin="round"/>
<path d="M433.127 255.092C433.127 255.092 415.911 255.585 406.619 229.593C397.326 203.601 418.234 198.358 433.653 212.27C449.073 226.182 442.735 231.956 461.109 244.821C479.484 257.686 475.476 283.147 469.782 289.968C464.089 296.79 453.31 307.291 446.124 279.729C438.938 252.166 433.127 255.092 433.127 255.092Z" fill="#C5CFD6"/>
<path d="M466.567 307.291C466.567 307.291 467.806 242.335 415.948 224.434" stroke="white" stroke-width="0.886462" stroke-linecap="round" stroke-linejoin="round"/>
<path d="M459.17 308.207C459.17 308.207 480.277 303.988 488.522 306.198C496.767 308.408 473.976 311.018 473.976 311.018C473.976 311.018 463.116 311.618 459.17 308.207Z" fill="#DDE3E9"/>
<path d="M203.102 315.075C203.102 315.075 179.313 291.755 175.292 268.881C171.272 246.007 179.982 230.155 192.713 227.66C205.443 225.166 213.156 217.651 257.71 236.406C302.264 255.161 353.534 221.832 353.534 221.832C353.534 221.832 395.43 197.88 416.103 203.724C439.644 210.368 444.649 228.076 438.287 259.727C431.925 291.377 410.249 315.314 410.249 315.314L203.102 315.075Z" fill="#DDE3E9"/>
<path d="M192.335 312.596C192.335 312.596 188.618 312.596 187.998 317.215C187.379 321.835 188.618 336.463 190.476 341.082C192.335 345.702 201.051 345.471 201.051 345.471L413.495 344.932C413.495 344.932 420.551 345.024 422.168 338.003C423.463 332.359 425.352 326.731 425.488 322.836C425.568 320.62 424.982 318.448 423.843 316.74C422.705 315.032 421.097 313.912 419.331 313.597C417.024 313.244 414.703 313.054 412.38 313.027C396.267 313.019 192.335 312.596 192.335 312.596Z" fill="#DDE3E9"/>
<path d="M182.423 384.197L196.671 345.702H207.822L192.954 384.197H182.423Z" fill="white"/>
<path d="M401.724 345.702L414.734 384.967L424.026 384.197L411.636 345.702H401.724Z" fill="white"/>
<path d="M206.713 313.012C206.713 313.012 187.131 294.234 186.214 286.419C185.018 276.295 192.409 261.166 221.042 267.865C249.675 274.563 300.164 292.686 327.527 283.409C354.891 274.132 389.335 235.344 391.813 233.296C394.291 231.248 423.568 213.325 430.221 240.633C436.875 267.942 410.125 312.719 410.125 312.719L206.713 313.012Z" fill="#C5CFD6"/>
<path d="M301.955 0L302.766 52.1378L303.751 51.9145L304.625 0H301.955Z" fill="#DDE3E9"/>
<path d="M280.687 94.852C280.687 94.852 272.882 51.314 303.77 50.8983C332.991 50.5056 325.495 97.0924 325.495 97.0924L280.687 94.852Z" fill="#DDE3E9"/>
<path d="M280.415 94.8597C280.415 94.8597 305.269 81.4865 325.57 96.923C325.57 96.923 304.203 111.051 280.415 94.8597Z" fill="white"/>
<path d="M292.439 58.682C292.439 58.682 281.604 63.7017 283.81 86.5216L292.439 58.682Z" fill="white"/>
<path d="M280.408 94.8597L258.491 192.861L348.181 191.767L325.564 96.923L280.408 94.8597Z" fill="url(#paint0_linear)"/>
</g>
<path fill-rule="evenodd" clip-rule="evenodd" d="M164.262 204.49C159.654 199.081 156.536 192.453 157.057 185.025C158.558 163.625 188.349 168.333 194.143 179.134C199.938 189.935 199.25 217.333 191.76 219.263C188.774 220.033 182.411 218.147 175.935 214.244L180 243H156L164.262 204.49Z" fill="#915B3C"/>
<path fill-rule="evenodd" clip-rule="evenodd" d="M162.418 209.308C159.406 195.906 150.825 186.771 152.135 180.782C153.009 176.789 155.338 174.305 159.121 173.332C161.078 165.416 167.39 162.048 178.056 163.23C194.055 165.004 203.819 171.648 199.602 186.268C195.726 186.268 191.046 184.866 184.576 187.268C182.522 188.03 181.054 190.393 180.17 194.358H177.246C174.408 189.653 171.609 187.924 168.851 189.171C166.092 190.418 165.465 193.447 166.97 198.259L165.529 209.308H162.418Z" fill="#191847"/>
<path fill-rule="evenodd" clip-rule="evenodd" d="M89 368H204C212.837 368 220 375.163 220 384V476C220 484.837 212.837 492 204 492H89C80.1634 492 73 484.837 73 476V384C73 375.163 80.1634 368 89 368ZM105 396C102.791 396 101 397.791 101 400V460C101 462.209 102.791 464 105 464H188C190.209 464 192 462.209 192 460V400C192 397.791 190.209 396 188 396H105Z" fill="#C5CFD6"/>
<path fill-rule="evenodd" clip-rule="evenodd" d="M319.159 487C299.443 462.924 286.103 445.075 279.138 433.454C267.213 413.555 257.453 395.848 254.373 389.084C247.028 372.955 271.282 365.403 276.771 372.926C285.079 384.312 302.822 420.143 330 480.417L319.159 487Z" fill="#B28B67"/>
<path fill-rule="evenodd" clip-rule="evenodd" d="M278.758 480L242.065 387.637C234.217 370.8 272.116 359.732 277.883 367.568C290.977 385.357 322.099 455.534 326 460.834L278.758 480Z" fill="#003049"/>
<path fill-rule="evenodd" clip-rule="evenodd" d="M181.033 461.477C188.181 451.051 214.179 415.974 228.339 401.461C232.408 397.291 236.379 393.288 240.134 389.557C251.296 378.47 273.524 397.106 262.382 407.205C234.635 432.355 194.151 466.307 190.769 469.334C186.028 473.577 176.541 468.029 181.033 461.477Z" fill="#915B3C"/>
<path fill-rule="evenodd" clip-rule="evenodd" d="M182.705 456.767C180.242 458.794 178.641 460.45 177.899 461.734C176.998 463.296 175.942 465.725 174.733 469.021C176.544 470.067 192.826 479.467 223.578 497.222C227.27 493.759 227.845 491.07 225.304 489.157C222.762 487.243 220.665 485.629 219.012 484.315L202.152 461.087C201.828 460.64 201.202 460.54 200.756 460.865C200.748 460.87 200.74 460.876 200.733 460.882L197.23 463.579C194.016 463.299 191.618 462.702 190.035 461.788C188.749 461.045 187.273 459.501 185.607 457.154L185.607 457.154C184.967 456.253 183.719 456.041 182.818 456.681C182.779 456.708 182.741 456.737 182.705 456.767Z" fill="#E4E4E4"/>
<path fill-rule="evenodd" clip-rule="evenodd" d="M310.678 483.402C309.559 486.388 309 488.623 309 490.106C309 491.909 309.3 494.54 309.901 498C311.993 498 330.794 498 366.303 498C367.769 493.154 366.923 490.539 363.765 490.152C360.607 489.766 357.984 489.417 355.895 489.106L329.68 477.419C329.176 477.194 328.584 477.421 328.359 477.925C328.356 477.934 328.352 477.942 328.348 477.951L326.663 482.039C323.74 483.403 321.364 484.085 319.537 484.085C318.052 484.085 316.001 483.485 313.384 482.285L313.384 482.285C312.38 481.825 311.193 482.266 310.733 483.27C310.713 483.313 310.695 483.357 310.678 483.402Z" fill="#E4E4E4"/>
<path fill-rule="evenodd" clip-rule="evenodd" d="M228.862 392.25C198.365 387.282 177.938 383.884 167.58 382.058C138.057 376.852 129.448 360.965 134.538 326.302H188.934C196.133 328.381 226.21 341.237 279.167 364.872C288.695 369.602 286.921 383.548 285.179 388.142C285.108 388.329 269.046 415.853 236.992 470.713L192.494 442.365L228.946 395.59C229.908 393.651 229.88 392.538 228.862 392.25Z" fill="#004265"/>
<path fill-rule="evenodd" clip-rule="evenodd" d="M232.781 313.211L264.679 336.635C273.331 338.97 280.559 341.874 286.364 345.349C287.735 346.598 289.392 349.128 283.705 348.691C278.019 348.254 272.018 348.049 271.233 349.989C270.449 351.929 273.89 354.248 272.304 356.865C271.246 358.61 266.251 354.235 257.317 343.741L225.73 330.642L232.781 313.211ZM110.308 314.02L131.205 314.102C118.302 355.756 111.336 377.857 110.308 380.406C107.994 386.14 112.891 394.874 114.985 399.567C108.165 402.619 108.891 391.317 100.288 395.319C92.4352 398.973 86.4617 405.592 77.389 399.994C76.2736 399.306 75.0512 396.715 78.0045 394.69C85.3623 389.645 95.9653 380.815 97.3979 377.908C99.3515 373.945 103.655 352.649 110.308 314.02Z" fill="#915B3C"/>
<path fill-rule="evenodd" clip-rule="evenodd" d="M169.695 226.332L178.342 224.849C210.425 252.564 223.603 305.809 262.929 334.015L253.464 345.748C185.24 337.3 168.33 272.355 169.695 226.332Z" fill="#F77F00"/>
<path fill-rule="evenodd" clip-rule="evenodd" d="M132 335C166.672 335 192.176 335 208.511 335C212.008 335 211.349 329.952 210.843 327.404C205.011 298.004 182.241 266.312 182.241 224.461L160.172 221C141.917 250.358 135.605 286.505 132 335Z" fill="#DDE3E9"/>
<path fill-rule="evenodd" clip-rule="evenodd" d="M132.615 249.858C129.41 248.937 126.871 246.788 125 243.411C116.934 228.856 119.847 220.842 128.467 218.208C137.088 215.574 144.775 221 158.51 221C159.257 221 159.941 221.047 160.563 221.14L167.472 221.535C187.294 288.715 192.761 333.537 183.872 356H123.652C120.084 364.32 116.67 371.32 113.409 377H97C95.4557 327.067 107.327 284.686 132.615 249.858Z" fill="#FF9B21"/>
<path fill-rule="evenodd" clip-rule="evenodd" d="M136.765 321.498C138.659 337.344 141.737 348.845 146 356H123.652C127.814 346.295 132.185 334.794 136.765 321.498Z" fill="black" fill-opacity="0.1"/>
<path fill-rule="evenodd" clip-rule="evenodd" d="M450.738 137.75C455.346 132.341 458.464 125.713 457.943 118.285C456.442 96.8847 426.651 101.592 420.857 112.394C415.062 123.195 415.75 150.593 423.24 152.523C426.226 153.293 432.589 151.407 439.065 147.504L435 176.26H459L450.738 137.75Z" fill="#B28B67"/>
<mask id="mask0" mask-type="alpha" maskUnits="userSpaceOnUse" x="422" y="96" width="60" height="53">
<path d="M422.424 108.205C422.634 106.9 422.218 106.26 427.465 102.583C432.713 98.9061 441.185 94.5696 449.718 96.4569C460.792 98.9061 465.191 106.211 469.461 109.762C473.311 112.964 477.174 113.337 479.463 117.31C481.752 121.282 482.97 132.711 480.979 137.255C478.233 143.523 472.819 145.211 468.866 147.016C462.087 150.113 452.505 146.842 452.273 146.301C450.478 142.109 440.813 130.287 435 125.319C430.725 121.667 421.437 114.331 422.424 108.205Z" fill="white"/>
</mask>
<g mask="url(#mask0)">
<path d="M422.424 108.205C422.634 106.9 422.218 106.26 427.465 102.583C432.713 98.9061 441.185 94.5696 449.718 96.4569C460.792 98.9061 465.191 106.211 469.461 109.762C473.311 112.964 477.174 113.337 479.463 117.31C481.752 121.282 482.97 132.711 480.979 137.255C478.233 143.523 472.819 145.211 468.866 147.016C462.087 150.113 452.505 146.842 452.273 146.301C450.478 142.109 440.813 130.287 435 125.319C430.725 121.667 421.437 114.331 422.424 108.205Z" fill="#004265"/>
<path fill-rule="evenodd" clip-rule="evenodd" d="M469.543 107.26C467.743 118.639 463.017 129.047 455.366 138.483C464.288 131.561 470.166 121.882 473 109.446L469.543 107.26ZM474.002 111.602C471.049 123.828 463.382 135.38 451 146.26C465.327 137.612 474.327 126.452 478 112.781L474.002 111.602Z" fill="black" fill-opacity="0.2"/>
</g>
<path fill-rule="evenodd" clip-rule="evenodd" d="M463 260L425.369 383.024L407.14 487.648H392.847L412.109 260H463Z" fill="#997659"/>
<path fill-rule="evenodd" clip-rule="evenodd" d="M476.462 260C473.906 327.547 476.914 362.389 477.486 368.526C478.058 374.663 485.892 414.455 504.436 489.708L489.206 484.478C459.898 415.459 449.911 379.589 446.55 370.526C443.188 361.463 434.261 324.621 419.767 260H476.462Z" fill="#B28B67"/>
<path fill-rule="evenodd" clip-rule="evenodd" d="M504.322 484.402C505.441 487.388 506 489.623 506 491.106C506 492.909 505.7 495.54 505.099 499C503.007 499 484.206 499 448.697 499C447.231 494.154 448.077 491.539 451.235 491.152C454.393 490.766 457.016 490.417 459.105 490.106L485.32 478.419C485.824 478.194 486.416 478.421 486.641 478.925C486.644 478.934 486.648 478.942 486.652 478.951L488.337 483.039C491.26 484.403 493.636 485.085 495.463 485.085C496.948 485.085 498.999 484.485 501.616 483.285L501.616 483.285C502.62 482.825 503.807 483.266 504.267 484.27C504.287 484.313 504.305 484.357 504.322 484.402Z" fill="#E4E4E4"/>
<path fill-rule="evenodd" clip-rule="evenodd" d="M410.322 484.402C411.441 487.388 412 489.623 412 491.106C412 492.909 411.7 495.54 411.099 499C409.007 499 390.206 499 354.697 499C353.231 494.154 354.077 491.539 357.235 491.152C360.393 490.766 363.016 490.417 365.105 490.106L391.32 478.419C391.824 478.194 392.416 478.421 392.641 478.925C392.644 478.934 392.648 478.942 392.652 478.951L394.337 483.039C397.26 484.403 399.636 485.085 401.463 485.085C402.948 485.085 404.999 484.485 407.616 483.285L407.616 483.285C408.62 482.825 409.807 483.266 410.267 484.27C410.287 484.313 410.305 484.357 410.322 484.402Z" fill="#E4E4E4"/>
<path fill-rule="evenodd" clip-rule="evenodd" d="M468 260L452 322.68H403.13L410.416 260H468Z" fill="#69A1AC"/>
<path fill-rule="evenodd" clip-rule="evenodd" d="M477 260C482.265 275.781 483.265 296.674 480 322.68H430.13L416.416 260H477Z" fill="#89C5CC"/>
<path fill-rule="evenodd" clip-rule="evenodd" d="M377.544 159.341L339.64 147.962C332.569 142.458 325.899 138.433 319.631 135.889C317.808 135.545 314.79 135.745 318.562 140.023C322.333 144.301 326.108 148.971 325.031 150.765C323.954 152.559 320.031 151.206 318.895 154.048C318.138 155.942 324.638 157.299 338.395 158.118L367.866 175.463L377.544 159.341ZM380.893 226.168L348.995 249.592C340.343 251.926 333.115 254.831 327.311 258.305C325.94 259.555 324.283 262.085 329.969 261.648C335.655 261.21 341.656 261.006 342.441 262.946C343.226 264.885 339.785 267.205 341.371 269.822C342.428 271.566 347.423 267.192 356.357 256.698L387.945 243.599L380.893 226.168Z" fill="#B28B67"/>
<path fill-rule="evenodd" clip-rule="evenodd" d="M430.439 163.087C413.069 195.476 387.95 220.305 351.534 246.116L365.323 261.663C405.982 246.553 427.441 237.436 437.979 206.835C440.624 199.154 442.472 174.671 444.058 161.789L430.439 163.087Z" fill="#003049"/>
<path fill-rule="evenodd" clip-rule="evenodd" d="M479 271H402C419.442 217.805 428.352 181.296 428.73 161.472C428.749 160.461 430.616 158.68 431.441 158.913C437.48 160.619 443.943 159.981 450.828 157C469.083 186.358 475.395 222.505 479 271Z" fill="#F2F2F2"/>
<path fill-rule="evenodd" clip-rule="evenodd" d="M444.257 157.047C422.186 157.228 386.376 161.259 345.077 148L341 168.373C372.213 188.448 403.819 203.999 431.514 201.791C419.488 253.377 420.042 295.606 446.593 295.606C459.272 295.606 472.957 295.606 487.649 295.606C494.17 251.784 477.032 191.024 461.144 160.377C460.537 159.206 459.246 157 456.203 157C453.552 157 449.575 157 444.273 157C444.268 157.016 444.263 157.032 444.257 157.047Z" fill="#004265"/>
<defs>
<linearGradient id="paint0_linear" x1="303.175" y1="42.0213" x2="303.462" y2="212.755" gradientUnits="userSpaceOnUse">
<stop stop-color="white"/>
<stop offset="1" stop-color="white" stop-opacity="0"/>
</linearGradient>
<clipPath id="clip0">
<rect width="600" height="476" fill="white"/>
</clipPath>
</defs>
</svg>
