<svg width="607" height="543" viewBox="0 0 607 543" fill="none" xmlns="http://www.w3.org/2000/svg">
<g clip-path="url(#clip0)">
<path d="M68.1767 64.6935L53.893 78.9488L67.2202 92.2495L81.504 77.9942L68.1767 64.6935Z" fill="#DDE3E9"/>
<path d="M83.9538 81.5765L69.67 95.8318L82.9973 109.132L97.281 94.8772L83.9538 81.5765Z" fill="#DDE3E9"/>
<path d="M87.3334 47.8214L73.0497 62.0767L86.3769 75.3773L100.661 61.1221L87.3334 47.8214Z" fill="#DDE3E9"/>
<path d="M538.242 290.824L523.958 305.08L537.285 318.38L551.569 304.125L538.242 290.824Z" fill="#DDE3E9"/>
<path d="M554.019 307.696L539.735 321.951L553.062 335.252L567.346 320.997L554.019 307.696Z" fill="#DDE3E9"/>
<path d="M537.11 324.575L522.827 338.83L536.154 352.131L550.438 337.875L537.11 324.575Z" fill="#DDE3E9"/>
<path d="M315.218 0H177.694V70.8751H315.218V0Z" fill="#C5CFD6"/>
<path d="M147.258 265.5H95.4048V380.25H147.258V265.5Z" fill="#DDE3E9"/>
<path d="M120.204 275.625C120.204 275.625 75.1143 202.5 72.8598 183.375C70.6053 164.25 68.3508 157.5 68.3508 157.5C68.3508 157.5 81.8778 155.25 86.3868 165.375C90.8958 175.5 104.423 163.125 108.932 190.125C108.932 190.125 110.059 203.625 120.204 199.125C130.349 194.625 120.204 275.625 120.204 275.625Z" fill="#DDE3E9"/>
<path d="M125.84 286.875C125.84 286.875 93.6463 227.25 83.005 203.625C75.1143 186.098 68.3508 157.5 68.3508 157.5C68.3508 157.5 54.7562 162.473 55.9511 173.25C57.0783 183.375 46.9331 186.75 49.1876 199.125C51.6224 212.513 71.0111 215.021 59.3328 227.25C52.2424 234.664 57.563 247.32 62.7146 255.375C66.0174 260.528 82.3061 265.219 78.496 263.25C69.7711 258.75 125.84 286.875 125.84 286.875Z" fill="#C5CFD6"/>
<path d="M105.417 236.877C106.548 236.357 101.978 224.04 95.209 209.366C88.44 194.692 82.0358 183.218 80.9047 183.737C79.7737 184.257 84.3442 196.574 91.1132 211.248C97.8822 225.922 104.286 237.396 105.417 236.877Z" fill="#C5CFD6"/>
<path d="M135.524 323.427C135.524 323.427 66.8741 271.677 57.811 254.678C48.7479 237.679 44.1826 232.178 44.1826 232.178C44.1826 232.178 55.9623 225.169 63.8531 232.965C71.7438 240.762 79.8375 224.325 93.8717 247.838C93.8717 247.838 95.416 264.341 105.561 260.966C116.079 257.501 135.524 323.427 135.524 323.427Z" fill="#DDE3E9"/>
<path d="M144.868 331.875C144.868 331.875 93.1503 288 74.6296 269.854C60.8884 256.354 44.1939 232.2 44.1939 232.2C44.1939 232.2 33.3384 241.774 38.3772 251.325C43.1117 260.325 34.894 267.177 41.511 277.887C48.6578 289.474 67.6406 284.772 61.2153 300.387C57.315 309.87 66.8515 319.725 74.6183 325.362C79.5669 328.962 96.4531 327.42 92.1921 326.97C82.3851 326.014 144.868 331.875 144.868 331.875Z" fill="#F8F8FF"/>
<path d="M100.827 306.326C101.692 305.432 92.9469 295.616 81.2954 284.402C69.6438 273.189 59.4977 264.823 58.6334 265.718C57.7691 266.612 66.5139 276.428 78.1654 287.641C89.8169 298.855 99.963 307.22 100.827 306.326Z" fill="#DDE3E9"/>
<path d="M493.324 185.726C493.324 185.726 546.913 98.7639 550.351 75.6001C553.789 52.4363 556.63 44.3138 556.63 44.3138C556.63 44.3138 541.75 40.9388 536.249 53.0888C530.748 65.2388 516.376 49.545 510.041 82.1926C510.041 82.1926 508.125 98.5726 497.1 92.6438C486.076 86.7151 493.324 185.726 493.324 185.726Z" fill="#DDE3E9"/>
<path d="M486.56 199.125C486.56 199.125 525.191 128.014 538.143 99.7426C547.759 78.7613 556.664 44.2688 556.664 44.2688C556.664 44.2688 571.487 50.9401 569.627 63.9901C567.88 76.2638 578.949 80.8651 575.838 95.7826C572.456 111.96 550.858 114.143 563.202 129.533C570.687 138.881 564.171 154.035 558.062 163.609C554.15 169.729 535.866 174.701 540.183 172.485C550.047 167.456 486.56 199.125 486.56 199.125Z" fill="#C5CFD6"/>
<path d="M524.312 106.301C516.083 123.851 510.413 138.634 511.642 139.32C512.87 140.006 520.536 126.326 528.765 108.776C536.993 91.2263 542.664 76.4438 541.435 75.7576C540.206 75.0713 532.53 88.7401 524.312 106.301Z" fill="#C5CFD6"/>
<path d="M473.98 243.203C473.98 243.203 552.617 183.308 563.506 163.035C574.395 142.763 579.716 136.305 579.716 136.305C579.716 136.305 567.012 127.305 557.881 136.384C548.751 145.463 540.6 125.134 523.883 153.135C523.883 153.135 521.358 173.149 510.278 168.581C498.791 163.845 473.98 243.203 473.98 243.203Z" fill="#F8F8FF"/>
<path d="M463.204 253.046C463.204 253.046 522.689 201.994 544.106 180.754C560.001 165.004 579.716 136.305 579.716 136.305C579.716 136.305 591.27 148.444 585.206 159.93C579.502 170.696 588.283 179.37 580.426 192.105C571.927 205.875 551.118 199.316 557.487 218.621C561.342 230.333 550.25 241.909 541.401 248.411C535.765 252.574 517.109 249.93 521.854 249.536C532.777 248.738 463.204 253.046 463.204 253.046Z" fill="#DDE3E9"/>
<path d="M542.224 193.68C529.328 207.36 519.679 219.341 520.626 220.433C521.573 221.524 532.811 211.309 545.707 197.618C558.603 183.926 568.252 171.956 567.305 170.865C566.358 169.774 555.12 180 542.224 193.68Z" fill="white"/>
<path d="M243.074 265.5H156.276V380.25H243.074V265.5Z" fill="#C5CFD6"/>
<path d="M432.452 266.625H345.654V381.375H432.452V266.625Z" fill="#DDE3E9"/>
<path d="M379.472 0H323.109V72.0001H379.472V0Z" fill="#DDE3E9"/>
<path d="M510.232 59.6251H116.823V348.75H510.232V59.6251Z" fill="#C5CFD6"/>
<path d="M510.232 59.6251H126.968V348.75H510.232V59.6251Z" fill="#F8F8FF"/>
<path d="M505.723 64.1251H130.349V84.3751H505.723V64.1251Z" fill="white"/>
<path d="M505.723 83.2501H130.349V344.25H505.723V83.2501Z" fill="#DDE3E9"/>
<path d="M238.565 93.3751H192.348V145.125H238.565V93.3751Z" fill="#C5CFD6"/>
<path d="M290.419 93.3751H244.202V145.125H290.419V93.3751Z" fill="#C5CFD6"/>
<path d="M341.145 93.3751H294.928V145.125H341.145V93.3751Z" fill="#C5CFD6"/>
<path d="M392.999 93.3751H346.781V145.125H392.999V93.3751Z" fill="white"/>
<path d="M443.725 93.3751H397.507V145.125H443.725V93.3751Z" fill="white"/>
<path d="M495.578 93.3751H449.361V145.125H495.578V93.3751Z" fill="white"/>
<path d="M238.565 153H192.348V204.75H238.565V153Z" fill="white"/>
<path d="M290.419 153H244.202V204.75H290.419V153Z" fill="white"/>
<path d="M341.145 153H294.928V204.75H341.145V153Z" fill="#F8F8FF"/>
<path d="M392.999 153H346.781V204.75H392.999V153Z" fill="white"/>
<path d="M443.725 153H397.507V204.75H443.725V153Z" fill="white"/>
<path d="M495.578 153H449.361V204.75H495.578V153Z" fill="white"/>
<path d="M238.565 210.375H192.348V262.125H238.565V210.375Z" fill="white"/>
<path d="M290.419 210.375H244.202V262.125H290.419V210.375Z" fill="white"/>
<path d="M341.145 210.375H294.928V262.125H341.145V210.375Z" fill="#F8F8FF"/>
<path d="M392.999 210.375H346.781V262.125H392.999V210.375Z" fill="white"/>
<path d="M443.725 210.375H397.507V262.125H443.725V210.375Z" fill="#F8F8FF"/>
<path d="M495.578 210.375H449.361V262.125H495.578V210.375Z" fill="white"/>
<path d="M239.693 268.875H193.475V320.625H239.693V268.875Z" fill="#F8F8FF"/>
<path d="M291.546 268.875H245.329V320.625H291.546V268.875Z" fill="#F8F8FF"/>
<path d="M342.272 268.875H296.055V320.625H342.272V268.875Z" fill="white"/>
<path d="M394.126 268.875H347.909V320.625H394.126V268.875Z" fill="white"/>
<path d="M444.852 268.875H398.635V320.625H444.852V268.875Z" fill="#C5CFD6"/>
<path d="M496.705 268.875H450.488V320.625H496.705V268.875Z" fill="white"/>
<path d="M141.058 78.7501C143.237 78.7501 145.004 76.9872 145.004 74.8126C145.004 72.6379 143.237 70.8751 141.058 70.8751C138.879 70.8751 137.113 72.6379 137.113 74.8126C137.113 76.9872 138.879 78.7501 141.058 78.7501Z" fill="#C5CFD6"/>
<path d="M153.458 78.7501C155.637 78.7501 157.403 76.9872 157.403 74.8126C157.403 72.6379 155.637 70.8751 153.458 70.8751C151.279 70.8751 149.513 72.6379 149.513 74.8126C149.513 76.9872 151.279 78.7501 153.458 78.7501Z" fill="#C5CFD6"/>
<path d="M165.858 78.7501C168.037 78.7501 169.803 76.9872 169.803 74.8126C169.803 72.6379 168.037 70.8751 165.858 70.8751C163.679 70.8751 161.912 72.6379 161.912 74.8126C161.912 76.9872 163.679 78.7501 165.858 78.7501Z" fill="#C5CFD6"/>
<path d="M178.258 151.875H146.695C143.893 151.875 141.622 154.142 141.622 156.938C141.622 159.734 143.893 162 146.695 162H178.258C181.059 162 183.33 159.734 183.33 156.938C183.33 154.142 181.059 151.875 178.258 151.875Z" fill="white"/>
<path d="M178.258 210.375H146.695C143.893 210.375 141.622 212.642 141.622 215.438C141.622 218.234 143.893 220.5 146.695 220.5H178.258C181.059 220.5 183.33 218.234 183.33 215.438C183.33 212.642 181.059 210.375 178.258 210.375Z" fill="white"/>
<path d="M178.258 268.875H146.695C143.893 268.875 141.622 271.142 141.622 273.938C141.622 276.734 143.893 279 146.695 279H178.258C181.059 279 183.33 276.734 183.33 273.938C183.33 271.142 181.059 268.875 178.258 268.875Z" fill="white"/>
<path d="M218.839 156.375H200.803C198.624 156.375 196.857 158.138 196.857 160.313C196.857 162.487 198.624 164.25 200.803 164.25H218.839C221.017 164.25 222.784 162.487 222.784 160.313C222.784 158.138 221.017 156.375 218.839 156.375Z" fill="#C5CFD6"/>
<path d="M207.566 171H199.675C198.119 171 196.857 172.259 196.857 173.813C196.857 175.366 198.119 176.625 199.675 176.625H207.566C209.122 176.625 210.384 175.366 210.384 173.813C210.384 172.259 209.122 171 207.566 171Z" fill="#C5CFD6"/>
<path d="M271.256 156.375H253.22C251.352 156.375 249.838 157.886 249.838 159.75C249.838 161.614 251.352 163.125 253.22 163.125H271.256C273.123 163.125 274.637 161.614 274.637 159.75C274.637 157.886 273.123 156.375 271.256 156.375Z" fill="#C5CFD6"/>
<path d="M424.561 276.75H406.525C404.658 276.75 403.144 278.261 403.144 280.125C403.144 281.989 404.658 283.5 406.525 283.5H424.561C426.429 283.5 427.943 281.989 427.943 280.125C427.943 278.261 426.429 276.75 424.561 276.75Z" fill="white"/>
<path d="M475.288 216H457.252C455.384 216 453.87 217.511 453.87 219.375C453.87 221.239 455.384 222.75 457.252 222.75H475.288C477.155 222.75 478.669 221.239 478.669 219.375C478.669 217.511 477.155 216 475.288 216Z" fill="#F5F5FC"/>
<path d="M474.16 157.5H456.124C454.257 157.5 452.743 159.011 452.743 160.875C452.743 162.739 454.257 164.25 456.124 164.25H474.16C476.028 164.25 477.542 162.739 477.542 160.875C477.542 159.011 476.028 157.5 474.16 157.5Z" fill="#F5F5FC"/>
<path d="M423.434 157.5H405.398C403.531 157.5 402.016 159.011 402.016 160.875C402.016 162.739 403.531 164.25 405.398 164.25H423.434C425.302 164.25 426.816 162.739 426.816 160.875C426.816 159.011 425.302 157.5 423.434 157.5Z" fill="#F5F5FC"/>
<path d="M254.347 176.625C256.837 176.625 258.856 174.61 258.856 172.125C258.856 169.64 256.837 167.625 254.347 167.625C251.857 167.625 249.838 169.64 249.838 172.125C249.838 174.61 251.857 176.625 254.347 176.625Z" fill="#C5CFD6"/>
<path d="M356.927 168.75C359.417 168.75 361.436 166.735 361.436 164.25C361.436 161.765 359.417 159.75 356.927 159.75C354.436 159.75 352.418 161.765 352.418 164.25C352.418 166.735 354.436 168.75 356.927 168.75Z" fill="#C5CFD6"/>
<path d="M372.708 168.75C375.198 168.75 377.217 166.735 377.217 164.25C377.217 161.765 375.198 159.75 372.708 159.75C370.218 159.75 368.199 161.765 368.199 164.25C368.199 166.735 370.218 168.75 372.708 168.75Z" fill="#C5CFD6"/>
<path d="M372.708 225C375.198 225 377.217 222.986 377.217 220.5C377.217 218.015 375.198 216 372.708 216C370.218 216 368.199 218.015 368.199 220.5C368.199 222.986 370.218 225 372.708 225Z" fill="#C5CFD6"/>
<path d="M356.927 225C359.417 225 361.436 222.986 361.436 220.5C361.436 218.015 359.417 216 356.927 216C354.436 216 352.418 218.015 352.418 220.5C352.418 222.986 354.436 225 356.927 225Z" fill="#C5CFD6"/>
<path d="M371.581 282.375C374.071 282.375 376.09 280.361 376.09 277.875C376.09 275.39 374.071 273.375 371.581 273.375C369.091 273.375 367.072 275.39 367.072 277.875C367.072 280.361 369.091 282.375 371.581 282.375Z" fill="#C5CFD6"/>
<path d="M355.799 282.375C358.29 282.375 360.308 280.361 360.308 277.875C360.308 275.39 358.29 273.375 355.799 273.375C353.309 273.375 351.29 275.39 351.29 277.875C351.29 280.361 353.309 282.375 355.799 282.375Z" fill="#C5CFD6"/>
<path d="M218.275 283.5C220.765 283.5 222.784 281.486 222.784 279C222.784 276.515 220.765 274.5 218.275 274.5C215.785 274.5 213.766 276.515 213.766 279C213.766 281.486 215.785 283.5 218.275 283.5Z" fill="#C5CFD6"/>
<path d="M202.493 283.5C204.984 283.5 207.002 281.486 207.002 279C207.002 276.515 204.984 274.5 202.493 274.5C200.003 274.5 197.984 276.515 197.984 279C197.984 281.486 200.003 283.5 202.493 283.5Z" fill="#C5CFD6"/>
<path d="M356.927 108C359.417 108 361.436 105.985 361.436 103.5C361.436 101.015 359.417 99.0001 356.927 99.0001C354.436 99.0001 352.418 101.015 352.418 103.5C352.418 105.985 354.436 108 356.927 108Z" fill="#C5CFD6"/>
<path d="M303.946 108C306.436 108 308.455 105.985 308.455 103.5C308.455 101.015 306.436 99.0001 303.946 99.0001C301.456 99.0001 299.437 101.015 299.437 103.5C299.437 105.985 301.456 108 303.946 108Z" fill="white"/>
<path d="M319.727 108C322.218 108 324.236 105.985 324.236 103.5C324.236 101.015 322.218 99.0001 319.727 99.0001C317.237 99.0001 315.218 101.015 315.218 103.5C315.218 105.985 317.237 108 319.727 108Z" fill="white"/>
<path d="M253.22 108C255.71 108 257.729 105.985 257.729 103.5C257.729 101.015 255.71 99.0001 253.22 99.0001C250.729 99.0001 248.711 101.015 248.711 103.5C248.711 105.985 250.729 108 253.22 108Z" fill="white"/>
<path d="M269.001 108C271.491 108 273.51 105.985 273.51 103.5C273.51 101.015 271.491 99.0001 269.001 99.0001C266.511 99.0001 264.492 101.015 264.492 103.5C264.492 105.985 266.511 108 269.001 108Z" fill="white"/>
<path d="M202.493 108C204.984 108 207.002 105.985 207.002 103.5C207.002 101.015 204.984 99.0001 202.493 99.0001C200.003 99.0001 197.984 101.015 197.984 103.5C197.984 105.985 200.003 108 202.493 108Z" fill="white"/>
<path d="M218.275 108C220.765 108 222.784 105.985 222.784 103.5C222.784 101.015 220.765 99.0001 218.275 99.0001C215.785 99.0001 213.766 101.015 213.766 103.5C213.766 105.985 215.785 108 218.275 108Z" fill="white"/>
<path d="M379.117 118.595H380.431V119.577H379.117V121.776H377.907V119.577H373.594V118.868L377.836 112.304H379.117V118.595ZM374.96 118.595H377.907V113.95L377.764 114.21L374.96 118.595Z" fill="#C5CFD6"/>
<path d="M279.918 121.776H273.711V120.911L276.99 117.268C277.476 116.717 277.81 116.27 277.992 115.928C278.178 115.581 278.272 115.223 278.272 114.854C278.272 114.36 278.122 113.954 277.823 113.638C277.523 113.321 277.124 113.163 276.626 113.163C276.027 113.163 275.561 113.334 275.227 113.677C274.897 114.015 274.733 114.488 274.733 115.095H273.529C273.529 114.223 273.809 113.518 274.368 112.981C274.932 112.443 275.685 112.174 276.626 112.174C277.506 112.174 278.202 112.406 278.714 112.87C279.226 113.33 279.482 113.943 279.482 114.711C279.482 115.644 278.888 116.754 277.699 118.042L275.162 120.794H279.918V121.776Z" fill="white"/>
<path d="M227.229 171.256L223.306 180.051H222.044L225.954 171.568H220.827V170.579H227.229V171.256Z" fill="#C5CFD6"/>
<path d="M368.219 180.119H367.008V172.097L364.582 172.989V171.896L368.03 170.601H368.219V180.119ZM377.684 176.079C377.684 177.488 377.444 178.536 376.962 179.221C376.481 179.906 375.728 180.249 374.705 180.249C373.694 180.249 372.946 179.915 372.46 179.247C371.975 178.575 371.723 177.573 371.706 176.242V174.635C371.706 173.242 371.946 172.208 372.428 171.531C372.909 170.855 373.664 170.516 374.692 170.516C375.711 170.516 376.461 170.844 376.943 171.499C377.424 172.149 377.671 173.156 377.684 174.518V176.079ZM376.481 174.433C376.481 173.414 376.338 172.672 376.051 172.208C375.765 171.74 375.312 171.505 374.692 171.505C374.076 171.505 373.627 171.737 373.345 172.201C373.063 172.666 372.918 173.379 372.909 174.342V176.268C372.909 177.291 373.057 178.048 373.352 178.538C373.651 179.024 374.102 179.267 374.705 179.267C375.299 179.267 375.739 179.037 376.025 178.577C376.316 178.117 376.468 177.393 376.481 176.404V174.433Z" fill="#C5CFD6"/>
<path d="M320.479 238.36H319.269V230.339L316.843 231.23V230.137L320.291 228.842H320.479V238.36ZM324.559 233.611L325.04 228.888H329.893V230H326.061L325.775 232.583C326.239 232.31 326.766 232.173 327.356 232.173C328.219 232.173 328.904 232.46 329.412 233.032C329.919 233.6 330.173 234.37 330.173 235.342C330.173 236.317 329.908 237.087 329.379 237.651C328.855 238.211 328.119 238.49 327.174 238.49C326.337 238.49 325.654 238.258 325.125 237.794C324.595 237.33 324.294 236.688 324.22 235.869H325.359C325.433 236.411 325.626 236.821 325.938 237.098C326.25 237.371 326.662 237.508 327.174 237.508C327.733 237.508 328.171 237.317 328.488 236.935C328.809 236.554 328.969 236.027 328.969 235.355C328.969 234.721 328.796 234.214 328.449 233.832C328.106 233.446 327.649 233.253 327.076 233.253C326.551 233.253 326.139 233.368 325.84 233.598L325.521 233.858L324.559 233.611Z" fill="#C5CFD6"/>
<path d="M472.658 240.61H471.448V232.589L469.021 233.48V232.387L472.469 231.092H472.658V240.61ZM481.929 233.61C481.929 234.083 481.803 234.504 481.551 234.872C481.304 235.241 480.968 235.529 480.543 235.737C481.037 235.95 481.428 236.26 481.714 236.668C482.005 237.075 482.15 237.537 482.15 238.053C482.15 238.873 481.872 239.526 481.317 240.012C480.766 240.497 480.04 240.74 479.138 240.74C478.227 240.74 477.496 240.497 476.945 240.012C476.399 239.522 476.126 238.869 476.126 238.053C476.126 237.542 476.264 237.08 476.542 236.668C476.824 236.256 477.212 235.943 477.707 235.731C477.286 235.523 476.954 235.234 476.711 234.866C476.468 234.497 476.347 234.078 476.347 233.61C476.347 232.812 476.603 232.179 477.115 231.71C477.626 231.242 478.301 231.008 479.138 231.008C479.971 231.008 480.643 231.242 481.155 231.71C481.671 232.179 481.929 232.812 481.929 233.61ZM480.946 238.027C480.946 237.498 480.777 237.067 480.439 236.733C480.105 236.399 479.667 236.232 479.125 236.232C478.583 236.232 478.147 236.397 477.817 236.726C477.492 237.056 477.329 237.49 477.329 238.027C477.329 238.565 477.488 238.988 477.804 239.296C478.125 239.604 478.57 239.758 479.138 239.758C479.702 239.758 480.144 239.604 480.465 239.296C480.786 238.984 480.946 238.561 480.946 238.027ZM479.138 231.997C478.665 231.997 478.281 232.144 477.986 232.439C477.696 232.73 477.55 233.126 477.55 233.63C477.55 234.111 477.694 234.501 477.98 234.801C478.27 235.096 478.656 235.243 479.138 235.243C479.619 235.243 480.003 235.096 480.289 234.801C480.58 234.501 480.725 234.111 480.725 233.63C480.725 233.148 480.576 232.756 480.276 232.452C479.977 232.148 479.598 231.997 479.138 231.997Z" fill="#C5CFD6"/>
<path d="M309.837 305.884C309.837 307.294 309.596 308.341 309.114 309.026C308.633 309.712 307.881 310.054 306.857 310.054C305.846 310.054 305.098 309.72 304.613 309.052C304.127 308.38 303.875 307.378 303.858 306.047V304.44C303.858 303.048 304.099 302.013 304.58 301.336C305.061 300.66 305.816 300.322 306.844 300.322C307.863 300.322 308.614 300.649 309.095 301.304C309.576 301.955 309.824 302.961 309.837 304.323V305.884ZM308.633 304.238C308.633 303.219 308.49 302.477 308.204 302.013C307.917 301.545 307.464 301.31 306.844 301.31C306.228 301.31 305.779 301.543 305.497 302.007C305.215 302.471 305.07 303.184 305.061 304.147V306.073C305.061 307.096 305.209 307.853 305.504 308.343C305.803 308.829 306.254 309.072 306.857 309.072C307.451 309.072 307.891 308.842 308.178 308.382C308.468 307.922 308.62 307.198 308.633 306.209V304.238Z" fill="#C5CFD6"/>
</g>
<g clip-path="url(#clip1)">
<path fill-rule="evenodd" clip-rule="evenodd" d="M144.262 155.49C139.654 150.081 136.536 143.453 137.057 136.025C138.558 114.625 168.349 119.333 174.143 130.134C179.938 140.935 179.25 168.333 171.76 170.263C168.774 171.033 162.411 169.147 155.935 165.244L160 194H136L144.262 155.49Z" fill="#915B3C"/>
<path fill-rule="evenodd" clip-rule="evenodd" d="M164.664 118.37C161.384 117.37 156.623 117.031 154.621 117.26C155.76 114.531 156.212 111.49 155.844 108.529C155.485 105.652 154.2 103.202 153.011 100.635C152.463 99.4522 151.842 98.2754 150.916 97.3704C149.972 96.4483 148.778 95.8397 147.526 95.5494C146.245 95.2522 144.905 95.2769 143.622 95.5466C143.054 95.6659 142.545 95.9255 141.988 96.0698C141.418 96.2176 141.141 95.8608 140.727 95.5021C139.73 94.638 138.268 94.2114 137.006 94.0587C135.59 93.8875 134.121 94.101 132.771 94.5664C131.457 95.0194 130.195 95.7551 129.245 96.8268C128.822 97.3039 128.438 97.8469 128.188 98.4464C128.086 98.6924 128.069 98.8381 127.823 98.9283C127.596 99.0117 127.331 99.0141 127.096 99.0935C124.831 99.8609 122.893 101.612 121.838 103.86C121.223 105.171 120.932 107.48 121.011 110.068C121.091 112.656 123.428 119.408 125.613 121.871C127.564 124.07 130.432 125.52 133.199 126.155C131.362 128.255 130.14 130.878 129.235 133.547C128.253 136.445 127.645 139.457 127.421 142.525C127.208 145.44 127.188 148.524 127.871 151.377C128.511 154.045 129.878 156.234 132.161 157.622C133.206 158.258 134.331 158.736 135.463 159.173C136.578 159.603 137.696 160.022 138.864 160.263C141.075 160.72 143.622 160.642 145.325 158.882C145.939 158.248 146.614 157.451 147.061 156.676C147.222 156.397 147.32 156.215 147.124 155.943C146.89 155.616 146.511 155.366 146.21 155.111C144.493 153.656 143.43 151.713 143.163 149.405C142.891 147.063 143.52 144.039 145.797 143.017C148.608 141.755 151.704 143.204 154.203 144.554C155.265 140.806 157.445 137.431 160.863 135.712C164.645 133.811 168.985 133.588 172.871 131.956C173.884 131.531 174.915 131.048 175.661 130.182C175.973 129.82 176.338 129.35 176.463 128.871C176.626 128.242 176.22 127.715 175.907 127.224C174.245 124.624 167.943 119.37 164.664 118.37Z" fill="#191847"/>
<path fill-rule="evenodd" clip-rule="evenodd" d="M130 277L204.306 401.227L260.015 506.25H272.014L178.674 277L130 277Z" fill="#784931"/>
<path fill-rule="evenodd" clip-rule="evenodd" d="M252.678 501.402C251.559 504.388 251 506.623 251 508.106C251 509.909 251.3 512.54 251.901 516C253.993 516 272.794 516 308.303 516C309.769 511.154 308.923 508.539 305.765 508.152C302.607 507.766 299.984 507.417 297.895 507.106L271.68 495.419C271.176 495.194 270.584 495.421 270.359 495.925C270.356 495.934 270.352 495.942 270.348 495.951L268.663 500.039C265.74 501.403 263.364 502.085 261.537 502.085C260.052 502.085 258.001 501.485 255.384 500.285L255.384 500.285C254.38 499.825 253.193 500.266 252.733 501.27C252.713 501.313 252.695 501.357 252.678 501.402Z" fill="#E4E4E4"/>
<path fill-rule="evenodd" clip-rule="evenodd" d="M244.543 489.433L267.683 482.433C257.545 452.125 245.119 418.772 230.405 382.374C215.692 345.977 199.89 310.852 183 277H117.644C136.422 319.821 156.329 358.729 177.366 393.725C198.402 428.721 220.795 460.624 244.543 489.433Z" fill="#D62828"/>
<path fill-rule="evenodd" clip-rule="evenodd" d="M125.117 277C118.103 320.654 104.577 376.427 103.301 378.149C102.45 379.296 71.8126 389.562 11.3899 408.947L13.9818 419.528C86.0358 409.132 124.002 401.066 127.881 395.331C133.699 386.728 162.748 318.763 174 277H125.117Z" fill="#915B3C"/>
<path fill-rule="evenodd" clip-rule="evenodd" d="M32.6295 399.8L37.1949 416.842C91.0871 421.569 124.108 418.153 136.258 406.596C148.407 395.039 162.254 351.84 177.799 277H115.478C105.63 338.284 100.124 370.212 98.9601 372.785C97.7967 375.357 75.6865 384.363 32.6295 399.8Z" fill="#FF4133"/>
<path fill-rule="evenodd" clip-rule="evenodd" d="M14.3489 404.539C11.2135 403.956 8.91577 403.793 7.45562 404.05C5.67973 404.363 3.14043 405.116 -0.162274 406.309C0.200988 408.369 3.46568 426.884 9.6318 461.854C14.6582 462.456 17.0875 461.168 16.9196 457.991C16.7517 454.814 16.6398 452.17 16.5837 450.059L23.5407 422.213C23.6746 421.677 23.3487 421.134 22.8129 421.001C22.8038 420.998 22.7946 420.996 22.7853 420.994L18.4672 420.044C16.6164 417.402 15.5322 415.181 15.2149 413.381C14.957 411.919 15.1915 409.795 15.9184 407.01L15.9184 407.01C16.1973 405.941 15.5571 404.849 14.4883 404.57C14.4422 404.558 14.3957 404.548 14.3489 404.539Z" fill="#E4E4E4"/>
<path fill-rule="evenodd" clip-rule="evenodd" d="M180.638 214.7L215.348 195.69C221.12 188.836 226.807 183.512 232.409 179.72C234.121 179.005 237.114 178.573 234.315 183.542C231.515 188.51 228.794 193.863 230.22 195.394C231.647 196.924 235.203 194.786 236.905 197.329C238.039 199.025 231.963 201.704 218.677 205.365L193.456 228.458L180.638 214.7ZM235 230.74L250.247 222.364C252.386 214.224 254.943 210.128 257.918 210.077C260.204 209.014 256.224 219.3 260.556 218.408C264.889 217.516 275.464 209.651 277.286 211.248C279.982 213.61 277.578 220.864 274.746 224.473C269.453 231.218 265.071 233.524 254.238 236.544C248.575 238.124 242.451 241.289 235.868 246.04L235 230.74Z" fill="#915B3C"/>
<path fill-rule="evenodd" clip-rule="evenodd" d="M163.734 210.465C175.892 210.337 192.104 207.769 209.402 196.789L216.196 211.939C204.264 223.78 187.486 233.51 172.816 233.098C161.255 232.773 155.347 218.789 163.734 210.465Z" fill="#004265"/>
<path fill-rule="evenodd" clip-rule="evenodd" d="M180.104 234.761C193.011 237.98 214.655 234.184 245.036 223.373C252.572 238.964 256.055 250.078 255.487 256.717C229.424 270.331 207.087 276.401 188.683 276.802C189.268 287.721 187.939 298.112 183.474 307.606C174.295 327.124 120.545 309.048 102.473 312.606C91.1554 275.851 113.038 260.914 113.055 237.397C113.075 211.642 133.754 172 136.797 172H164.544C166.075 191.669 173.78 213.346 180.104 234.761Z" fill="#003049"/>
</g>
<g clip-path="url(#clip2)">
<rect x="205.268" y="148.884" width="105.239" height="70.3299" rx="6" transform="rotate(-13.5617 205.268 148.884)" fill="#003049"/>
<circle cx="294.066" cy="147.066" r="10" transform="rotate(-13.5617 294.066 147.066)" fill="#ECECEC"/>
<path d="M257.019 187.136L234.856 193.075L233.843 189.294L241.614 174.376C242.725 172.185 243.455 170.413 243.804 169.057C244.164 167.683 244.184 166.4 243.864 165.208C243.444 163.638 242.659 162.489 241.509 161.762C240.375 161.031 239.061 160.865 237.567 161.266C235.786 161.743 234.551 162.656 233.861 164.006C233.171 165.355 233.079 166.973 233.584 168.86L228.083 170.334C227.545 168.327 227.515 166.402 227.991 164.559C228.479 162.698 229.449 161.095 230.901 159.752C232.368 158.404 234.211 157.433 236.429 156.839C239.629 155.982 242.366 156.114 244.64 157.235C246.925 158.338 248.447 160.307 249.208 163.145C249.649 164.79 249.644 166.643 249.193 168.705C248.754 170.748 247.785 173.199 246.287 176.06L240.538 186.845L255.842 182.744L257.019 187.136ZM275.464 156.182C275.897 157.797 275.868 159.35 275.378 160.84C274.883 162.315 274.016 163.607 272.777 164.715C274.712 165.054 276.325 165.795 277.618 166.937C278.926 168.074 279.814 169.519 280.283 171.269C281.06 174.167 280.696 176.732 279.191 178.963C277.681 181.179 275.297 182.724 272.037 183.597C268.762 184.475 265.907 184.326 263.473 183.15C261.054 181.97 259.458 179.939 258.686 177.056C258.213 175.291 258.256 173.58 258.816 171.926C259.375 170.272 260.399 168.841 261.887 167.633C260.275 167.289 258.885 166.602 257.72 165.571C256.565 164.522 255.771 163.19 255.338 161.575C254.586 158.768 254.895 156.299 256.266 154.169C257.636 152.038 259.86 150.56 262.939 149.735C266.033 148.906 268.706 149.072 270.958 150.232C273.21 151.391 274.712 153.375 275.464 156.182ZM274.709 172.472C274.273 170.842 273.43 169.66 272.182 168.927C270.945 168.174 269.527 168.013 267.927 168.441C266.327 168.87 265.178 169.712 264.479 170.967C263.795 172.218 263.674 173.666 264.114 175.311C264.547 176.926 265.361 178.091 266.555 178.806C267.765 179.517 269.2 179.65 270.86 179.205C272.52 178.76 273.685 177.947 274.355 176.764C275.04 175.578 275.158 174.147 274.709 172.472ZM270.04 157.854C269.656 156.42 268.926 155.354 267.849 154.656C266.768 153.943 265.526 153.774 264.122 154.15C262.719 154.526 261.729 155.269 261.152 156.377C260.572 157.471 260.486 158.78 260.894 160.305C261.299 161.814 262.028 162.905 263.081 163.577C264.15 164.245 265.386 164.391 266.79 164.015C268.193 163.638 269.183 162.896 269.76 161.787C270.351 160.674 270.445 159.363 270.04 157.854Z" fill="#DBDBDB"/>
<line x1="240.719" y1="197.04" x2="281.719" y2="185.04" stroke="#E6E6E6" stroke-width="2"/>
</g>
<path fill-rule="evenodd" clip-rule="evenodd" d="M475.738 155.49C480.346 150.081 483.464 143.453 482.943 136.025C481.442 114.625 451.651 119.333 445.857 130.134C440.062 140.935 440.75 168.333 448.24 170.263C451.226 171.033 457.589 169.147 464.065 165.244L460 194H484L475.738 155.49Z" fill="#B28B67"/>
<path fill-rule="evenodd" clip-rule="evenodd" d="M459.536 117.685C462.699 117.167 471.216 116.81 472.787 116.81C473.79 116.81 474.878 117.039 475.473 116.118C475.959 115.363 475.781 114.087 475.926 113.211C476.095 112.193 476.335 111.189 476.577 110.187C477.267 107.337 478.31 104.625 479.769 102.079C482.507 97.3019 486.519 93.5601 491.583 91.3828C497.176 88.9787 503.504 88.4282 509.52 88.9158C515.957 89.4375 521.784 91.5626 527.862 93.5624C533.654 95.4681 539.72 96.2182 545.778 95.2876C551.882 94.35 556.493 91.042 561.641 87.9023C566.911 84.688 572.934 82.5857 579.165 83.069C584.98 83.5203 590.341 85.9216 595.15 89.1295C599.649 92.1308 603.362 95.7418 605.458 100.824C607.713 106.291 607.711 112.292 604.003 117.123C598.628 124.127 588.65 125.938 580.349 125.758C575.547 125.654 570.832 124.777 566.299 123.183C560.253 121.056 555.029 117.452 549.373 114.528C546.719 113.156 543.975 112.029 541.099 111.217C538.309 110.429 535.56 110.067 533.034 111.753C530.361 113.537 527.966 115.289 524.908 116.405C521.974 117.476 518.867 118.075 515.742 118.051C509.661 118.004 503.667 116.109 497.761 114.84C492.946 113.806 487.793 112.774 482.883 113.769C480.834 114.184 477.841 115.041 477.101 117.17C489.556 119.427 494.447 134.83 490.936 146.137C489.041 152.24 477.65 159.374 473.221 156.166C470.415 154.133 472.119 151.465 473.221 149.703C475.332 146.33 476.055 141.997 472.148 139.648C468.778 137.622 465.235 142.433 465.168 142.427C464.242 142.354 456.24 137.829 450.726 131.224C445.287 131.547 444.461 127.96 445.76 125.027C447.059 122.094 455.166 118.402 459.536 117.685Z" fill="#191847"/>
<path fill-rule="evenodd" clip-rule="evenodd" d="M503.356 277C501.553 301.61 385.393 374.064 384.716 376.096C384.414 377 396.466 405.56 420.872 461.778L410.718 465.724C373.284 406.185 355.529 373.244 357.451 366.9C360.204 357.817 390.246 327.938 447.578 277.262L503.356 277Z" fill="#B28B67"/>
<path fill-rule="evenodd" clip-rule="evenodd" d="M418.2 449.082L401.621 455.117C366.664 415.674 352.962 383.131 355.46 366.549C357.126 355.495 387.064 325.665 445.276 277.06L504.545 277.06C502.523 334.053 394.857 376.313 393.417 378.742C391.977 381.171 406.149 404.957 418.2 449.082Z" fill="#003049"/>
<path fill-rule="evenodd" clip-rule="evenodd" d="M424.608 459.84C426.68 462.263 427.97 464.172 428.477 465.565C429.094 467.26 429.712 469.835 430.331 473.292C428.365 474.007 410.698 480.437 377.33 492.582C374.296 488.53 374.196 485.783 377.031 484.34C379.866 482.896 382.212 481.671 384.068 480.664L404.705 460.716C405.103 460.333 405.736 460.343 406.119 460.74C406.126 460.747 406.132 460.754 406.139 460.761L409.12 464.026C412.334 464.308 414.799 464.136 416.517 463.511C417.912 463.003 419.634 461.738 421.683 459.716L421.683 459.716C422.469 458.94 423.735 458.948 424.511 459.734C424.544 459.768 424.577 459.803 424.608 459.84Z" fill="#E4E4E4"/>
<path fill-rule="evenodd" clip-rule="evenodd" d="M490 277L541.746 401.227L592.604 506.25H580.605L449.326 277H490Z" fill="#997659"/>
<path fill-rule="evenodd" clip-rule="evenodd" d="M593.322 501.402C594.441 504.388 595 506.623 595 508.106C595 509.909 594.7 512.54 594.099 516C592.007 516 573.206 516 537.697 516C536.231 511.154 537.077 508.539 540.235 508.152C543.393 507.766 546.016 507.417 548.105 507.106L574.32 495.419C574.824 495.194 575.416 495.421 575.641 495.925C575.644 495.934 575.648 495.942 575.652 495.951L577.337 500.039C580.26 501.403 582.636 502.085 584.463 502.085C585.948 502.085 587.999 501.485 590.616 500.285L590.616 500.285C591.62 499.825 592.807 500.266 593.267 501.27C593.287 501.313 593.305 501.357 593.322 501.402Z" fill="#E4E4E4"/>
<path fill-rule="evenodd" clip-rule="evenodd" d="M588.011 484.433L561.349 489.433C540.734 459.125 454.459 334.852 445 277H504.356C535.945 318.821 568.361 453.624 588.011 484.433Z" fill="#004265"/>
<path fill-rule="evenodd" clip-rule="evenodd" d="M400 249.617L363.765 233.704C357.418 227.379 351.289 222.572 345.377 219.282C343.61 218.719 340.59 218.549 343.812 223.255C347.034 227.961 350.211 233.056 348.924 234.705C347.636 236.355 343.907 234.534 342.434 237.216C341.451 239.004 347.738 241.143 361.293 243.633L388.43 264.439L400 249.617ZM546.492 254L526 258.066C546.608 296.471 557.66 316.826 559.155 319.13C562.52 324.315 559.38 333.817 558.221 338.821C565.496 340.515 562.627 329.565 571.833 331.851C580.236 333.938 587.361 339.293 595.196 332.071C596.159 331.183 596.865 328.407 593.58 326.984C585.397 323.437 573.308 316.796 571.348 314.218C568.674 310.702 560.389 290.63 546.492 254Z" fill="#B28B67"/>
<path fill-rule="evenodd" clip-rule="evenodd" d="M470.305 177.332L461.658 175.849C442.824 194.119 435.138 238.012 422.586 243.822C410.719 249.316 393.896 244 373.9 236.822L367.776 250.505C385.945 270.161 424.651 286.767 440.34 277.287C465.424 262.13 471.214 207.994 470.305 177.332Z" fill="#D62828"/>
<path fill-rule="evenodd" clip-rule="evenodd" d="M508 286C473.328 286 447.824 286 431.489 286C427.992 286 428.651 280.952 429.157 278.404C434.989 249.004 457.759 217.312 457.759 175.461L479.828 172C498.083 201.358 504.395 237.505 508 286Z" fill="#DDE3E9"/>
<path fill-rule="evenodd" clip-rule="evenodd" d="M515.631 256.233C531.229 284.368 544.339 304.623 554.963 317L571 313.859C560.669 249.791 530.753 202.504 481.252 172H477.269L472.514 172C452.701 239.537 447.239 284.537 456.128 307H525C523.91 290.563 520.417 273.181 515.631 256.233H515.631Z" fill="#FF4133"/>
<defs>
<clipPath id="clip0">
<rect width="550" height="381.375" fill="white" transform="translate(37)"/>
</clipPath>
<clipPath id="clip1">
<rect width="340" height="480" fill="white" transform="translate(0 63)"/>
</clipPath>
<clipPath id="clip2">
<rect x="205.268" y="148.884" width="105.239" height="70.3299" rx="6" transform="rotate(-13.5617 205.268 148.884)" fill="white"/>
</clipPath>
</defs>
</svg>
