<svg width="434" height="363" viewBox="0 0 434 363" fill="none" xmlns="http://www.w3.org/2000/svg">
<g clip-path="url(#clip0)">
<path fill-rule="evenodd" clip-rule="evenodd" d="M242.333 71.665C221.407 108.844 167.237 91.6579 134.491 111.146C105.074 128.654 139.904 201.678 70.4558 231.575C41.4354 228.176 8.06052 228.528 4.63724 193.251C2.11611 167.271 46.032 119.483 53.0987 92.8759C61.5463 61.0692 91.4773 35.7251 115.355 17.5613C139.323 -0.671494 150.027 0.770452 173.952 9.84345C196.925 18.5551 195.906 17.0526 220.207 25.4601C238.569 54.8445 262.275 36.235 242.333 71.665Z" fill="#FFA341" fill-opacity="0.67"/>
<path fill-rule="evenodd" clip-rule="evenodd" d="M350.496 153C386.158 153 434 154.306 434 190.123C434 236.722 396.892 275 350.496 275C314.701 275 315 226.075 315 190.123C315 170.023 330.484 153 350.496 153Z" fill="#004265" fill-opacity="0.83"/>
<path fill-rule="evenodd" clip-rule="evenodd" d="M163.262 72.4901C158.654 67.0814 155.536 60.4529 156.057 53.0255C157.558 31.625 187.349 36.3328 193.143 47.1339C198.938 57.9351 198.25 85.333 190.76 87.2635C187.774 88.0333 181.411 86.1475 174.935 82.2443L179 111H155L163.262 72.4901Z" fill="#B28B67"/>
<path fill-rule="evenodd" clip-rule="evenodd" d="M161.418 77.3075C158.406 63.9065 149.825 54.7714 151.135 48.7817C152.009 44.7886 154.338 42.3054 158.121 41.3321C160.078 33.4155 166.39 30.0482 177.056 31.2304C193.055 33.0036 202.819 39.6478 198.602 54.2679C194.726 54.2679 190.046 52.866 183.576 55.2679C181.522 56.03 180.054 58.3934 179.17 62.358H176.246C173.408 57.6531 170.609 55.9241 167.851 57.1712C165.092 58.4183 164.465 61.4474 165.97 66.2586L164.529 77.3075H161.418Z" fill="#191847"/>
<path fill-rule="evenodd" clip-rule="evenodd" d="M112.623 239H189.877L200 363H85L112.623 239Z" fill="#C5CFD6"/>
<path fill-rule="evenodd" clip-rule="evenodd" d="M112.623 239H136.383L150.604 363H85L112.623 239Z" fill="black" fill-opacity="0.1"/>
<path fill-rule="evenodd" clip-rule="evenodd" d="M277.953 217.756C286.19 212.81 300.009 219.165 300 226.238C299.972 247.403 280.657 347.151 279.648 353.457C278.64 359.762 267.837 361.428 267.208 353.477C266.207 340.827 264.347 297.033 266.208 276.763C266.976 268.395 267.803 260.427 268.617 253.318C258.482 271.621 242.807 297.826 221.593 331.934L210.077 326.672C219.12 296.876 226.536 275.841 232.323 263.566C242.233 242.55 251.525 224.552 255.436 218.212C261.588 208.24 272.295 211.719 277.953 217.756Z" fill="#B28B67"/>
<path fill-rule="evenodd" clip-rule="evenodd" d="M210.9 310.125L250.427 216.487C259.897 201.255 286.446 219.587 283.217 228.422C275.886 248.479 238.6 313.414 236.415 319.39L210.9 310.125Z" fill="#004265"/>
<path fill-rule="evenodd" clip-rule="evenodd" d="M208.705 320.767C206.242 322.794 204.641 324.45 203.899 325.734C202.998 327.296 201.942 329.725 200.733 333.021C202.544 334.067 218.826 343.467 249.578 361.222C253.27 357.759 253.845 355.07 251.304 353.157C248.762 351.243 246.665 349.629 245.012 348.315L228.152 325.087C227.828 324.64 227.202 324.54 226.756 324.865C226.748 324.87 226.74 324.876 226.733 324.882L223.23 327.579C220.016 327.299 217.618 326.702 216.035 325.788C214.749 325.045 213.273 323.501 211.607 321.154L211.607 321.154C210.967 320.253 209.719 320.041 208.818 320.681C208.779 320.708 208.741 320.737 208.705 320.767Z" fill="#E4E4E4"/>
<path fill-rule="evenodd" clip-rule="evenodd" d="M264.678 348.402C263.559 351.388 263 353.623 263 355.106C263 356.909 263.3 359.54 263.901 363C265.993 363 284.794 363 320.303 363C321.769 358.154 320.923 355.539 317.765 355.152C314.607 354.766 311.984 354.417 309.895 354.106L283.68 342.419C283.176 342.194 282.584 342.421 282.359 342.925C282.356 342.934 282.352 342.942 282.348 342.951L280.663 347.039C277.74 348.403 275.364 349.085 273.537 349.085C272.052 349.085 270.001 348.485 267.384 347.285L267.384 347.285C266.38 346.825 265.193 347.266 264.733 348.27C264.713 348.313 264.695 348.357 264.678 348.402Z" fill="#E4E4E4"/>
<path fill-rule="evenodd" clip-rule="evenodd" d="M302.77 233.433C302.77 260 290.154 321.97 290.146 327.82L263 327.841C266.973 272.545 268.382 244.6 267.227 244.004C265.493 243.111 196.176 250.925 175.386 250.925C145.408 250.925 133.006 232.02 132 197H191.386C203.478 198.294 266.549 211.015 289.972 215.388C300 217.261 302.77 226.115 302.77 233.433Z" fill="#003049"/>
<path fill-rule="evenodd" clip-rule="evenodd" d="M239.527 94.5648L277.43 83.1864C284.501 77.682 291.171 73.6574 297.439 71.1126C299.262 70.7695 302.28 70.9688 298.509 75.247C294.737 79.5253 290.963 84.1949 292.039 85.9888C293.116 87.7827 297.04 86.4304 298.175 89.272C298.932 91.1664 292.432 92.5233 278.675 93.3425L249.204 110.687L239.527 94.5648ZM236.177 161.392L268.075 184.816C276.727 187.15 283.955 190.055 289.76 193.529C291.131 194.779 292.788 197.309 287.101 196.872C281.415 196.434 275.414 196.23 274.629 198.17C273.845 200.109 277.286 202.429 275.7 205.046C274.642 206.79 269.647 202.416 260.713 191.922L229.126 178.823L236.177 161.392Z" fill="#B28B67"/>
<path fill-rule="evenodd" clip-rule="evenodd" d="M186.631 98.3108C204.002 130.7 229.12 155.529 265.536 181.34L251.748 196.887C211.088 181.777 189.629 172.66 179.091 142.059C176.446 134.378 174.598 109.895 173.012 97.0129L186.631 98.3108Z" fill="#003049"/>
<path fill-rule="evenodd" clip-rule="evenodd" d="M138.07 206.224H215.07C197.629 153.029 188.719 116.52 188.341 96.6956C188.321 95.6849 186.455 93.904 185.629 94.1372C179.59 95.8428 173.128 95.205 166.242 92.224C147.988 121.582 141.675 157.729 138.07 206.224Z" fill="#F2F2F2"/>
<path fill-rule="evenodd" clip-rule="evenodd" d="M172.813 92.2714C194.885 92.4521 230.694 96.4827 271.993 83.224L276.07 103.597C244.857 123.672 213.251 139.223 185.557 137.015C197.583 188.601 197.028 230.83 170.478 230.83C157.799 230.83 144.113 230.83 129.421 230.83C122.901 187.008 140.038 126.248 155.926 95.6006C156.533 94.4303 157.825 92.224 160.867 92.224C163.518 92.224 167.495 92.224 172.797 92.224C172.802 92.2398 172.808 92.2556 172.813 92.2714Z" fill="#004265"/>
</g>
<defs>
<clipPath id="clip0">
<rect width="434" height="363" fill="white"/>
</clipPath>
</defs>
</svg>
