<svg width="309" height="379" viewBox="0 0 309 379" fill="none" xmlns="http://www.w3.org/2000/svg">
<g clip-path="url(#clip0)">
<rect x="3" y="10.3269" width="152" height="321.533" rx="12" fill="#FFA341"/>
<g clip-path="url(#clip1)">
<path d="M38 12L119 12C119 19.732 112.732 26 105 26L52 26C44.268 26 38 19.732 38 12Z" fill="white"/>
<path fill-rule="evenodd" clip-rule="evenodd" d="M-3.20257 290.55C21.6633 304.239 43.7504 313.35 63.0588 317.882C82.3671 322.414 101.646 320.892 120.897 313.316C96.6468 299.563 76.0958 290.709 59.2439 286.754C42.3919 282.799 21.5765 284.064 -3.20257 290.55Z" fill="#F77F00"/>
<path fill-rule="evenodd" clip-rule="evenodd" d="M83.5786 334.02C83.4125 333.574 83.2942 333.103 83.229 332.609C81.8791 322.366 48.7124 207.498 47.3896 187.609L111.541 202.667C112.547 217.788 111.2 310.884 109.789 329.189C111.877 359.077 108.464 453.485 109.265 460.269C110.107 467.405 95.0792 471.106 93.4001 462.182C90.7284 447.982 85.5225 409.204 84.5853 386.052C83.7068 364.348 83.3996 344.934 83.5786 334.02Z" fill="#997659"/>
<path fill-rule="evenodd" clip-rule="evenodd" d="M28.1911 334.094C0.596427 334.564 -97.4812 324.102 -104.458 324.434C-111.635 324.776 -114.28 309.526 -105.261 308.474C-90.9101 306.8 -51.8664 304.315 -28.7076 304.996C-10.08 305.544 6.83574 306.394 18.133 307.219C24.3886 276.408 37.3977 201.998 43.8828 186.789L100.644 200.112C94.4251 214.696 45.9824 320.389 39.2115 330.518C36.9594 334.173 32.6043 334.999 28.1911 334.094Z" fill="#B28B67"/>
<path fill-rule="evenodd" clip-rule="evenodd" d="M44.0653 186.829C70.7571 185.544 94.4236 191.098 115.065 203.494C114.517 240.748 130.086 259.24 120.659 314.342C78.5428 324.231 39.4832 281.186 -3.63295 290.349C-8.72814 262.18 21.2488 204.257 44.0653 186.829Z" fill="#FF9422"/>
<path fill-rule="evenodd" clip-rule="evenodd" d="M155.99 65.8661C155.018 57.5631 156.301 49.0412 161.666 42.1185C177.124 22.1723 203.187 46.2594 201.795 60.612C200.403 74.9646 181.82 101.308 173.232 98.2974C169.807 97.097 164.816 91.0915 161.033 83.0394L146.211 113.819L122.734 98.1225L155.99 65.8661Z" fill="#B28B67"/>
<path fill-rule="evenodd" clip-rule="evenodd" d="M165.1 69.8271C158.454 73.4673 151.616 74.9824 147.593 72.293C139.953 67.1847 141.347 53.3405 148.686 42.3607C148.944 41.9749 149.208 41.5968 149.477 41.2265C137.689 41.3675 124.154 48.1322 113.46 40.9823C98.9111 31.2549 112.744 -1.94586 133.071 11.6446C146.895 20.8872 152.348 27.4486 156.216 34.3463C159.55 31.8616 163.143 30.3011 166.576 29.8294C167.485 29.5925 168.653 29.5657 170.024 29.7338C170.881 29.81 171.716 29.9645 172.523 30.2001C176.925 31.2646 182.657 33.7714 188.508 37.3948C189.601 38.0715 190.657 38.7617 191.671 39.4594C195.288 34.0838 202.577 32.646 207.969 36.2511C213.371 39.863 214.824 47.1694 211.214 52.5703C207.722 57.7935 200.774 59.3217 195.434 56.1497C191.877 55.0876 187.641 53.2219 183.25 50.6938C182.632 52.5007 181.689 54.3916 180.373 56.3609C179.211 58.0998 177.786 59.8156 176.181 61.4518C175.993 59.7593 175.247 58.2376 174.01 57.4106C170.549 55.097 166.238 56.3324 164.219 59.3541C161.655 63.189 162.015 67.4439 165.1 69.8271Z" fill="#003049"/>
<path fill-rule="evenodd" clip-rule="evenodd" d="M156.936 218.176L166.27 262.298C171.852 270.849 175.791 278.804 178.088 286.163C178.305 288.266 177.793 291.674 173.292 286.986C168.791 282.298 163.845 277.57 161.706 278.623C159.567 279.676 160.732 284.259 157.398 285.28C155.175 285.96 154.249 278.45 154.62 262.75L137.713 227.64L156.936 218.176ZM35.3576 142.233L55.1016 155.546C16.501 186.835 -4.09345 203.361 -6.68164 205.124C-12.5051 209.091 -13.3972 220.466 -14.3856 226.239C-22.7788 224.811 -14.9334 214.564 -25.6179 212.907C-35.3703 211.394 -45.2209 213.882 -50.2704 202.833C-50.8912 201.474 -50.4081 198.245 -46.328 198.197C-36.1632 198.077 -20.5274 196.428 -17.3298 194.582C-12.9692 192.064 4.59324 174.615 35.3576 142.233Z" fill="#B28B67"/>
<path fill-rule="evenodd" clip-rule="evenodd" d="M147.145 96.7707L156.276 100.842C146.828 145.504 150.051 193.98 165.945 246.27L117.824 260.78C110.092 196.288 116.708 139.507 147.145 96.7707Z" fill="#003049"/>
<path fill-rule="evenodd" clip-rule="evenodd" d="M42.6217 175.846L115.565 224.614C126.133 172.224 141.017 131.667 160.217 102.945L140.405 84.9553C104.521 101.207 76.7471 132.186 42.6217 175.846Z" fill="#DDE3E9"/>
<path fill-rule="evenodd" clip-rule="evenodd" d="M139.929 84.6602C139.935 84.6569 139.942 84.6537 139.948 84.6504L141.384 85.6107C143.064 86.819 145.61 88.6757 149.024 91.1811L144.183 109.931C132.362 128.833 110.689 168.365 79.1657 228.525L31.3502 196.557C28.8835 200.518 26.4739 204.57 24.1215 208.713L-11.4317 184.943C33.9951 128.495 84.4463 95.0589 139.922 84.6329L139.929 84.6602L139.929 84.6602Z" fill="#004265"/>
<path fill-rule="evenodd" clip-rule="evenodd" d="M67.6743 149.052C52.8773 174.134 45.1458 193.075 44.4798 205.876L31.1122 196.939C42.1521 179.156 54.3394 163.194 67.6743 149.052L67.6743 149.052Z" fill="black" fill-opacity="0.1"/>
<path fill-rule="evenodd" clip-rule="evenodd" d="M61.3743 174.677L92.2789 179.479L84.9517 190.44L61.3743 174.677Z" fill="white" fill-opacity="0.2"/>
</g>
</g>
<rect x="3" y="10.3269" width="152" height="321.533" rx="12" stroke="white" stroke-width="6"/>
<g clip-path="url(#clip2)">
<path fill-rule="evenodd" clip-rule="evenodd" d="M-3.2026 290.55C21.6633 304.239 43.7504 313.35 63.0587 317.882C82.3671 322.414 101.646 320.892 120.897 313.316C96.6467 299.563 76.0958 290.709 59.2438 286.754C42.3919 282.799 21.5764 284.064 -3.2026 290.55Z" fill="#F77F00"/>
<path fill-rule="evenodd" clip-rule="evenodd" d="M83.5785 334.02C83.4125 333.574 83.2942 333.103 83.229 332.609C81.879 322.366 48.7124 207.498 47.3896 187.609L111.541 202.667C112.547 217.788 111.2 310.884 109.789 329.189C111.877 359.077 108.464 453.485 109.265 460.269C110.107 467.405 95.0792 471.106 93.4001 462.182C90.7284 447.982 85.5224 409.204 84.5853 386.052C83.7068 364.348 83.3996 344.934 83.5785 334.02Z" fill="#997659"/>
<path fill-rule="evenodd" clip-rule="evenodd" d="M28.1911 334.094C0.596397 334.564 -97.4812 324.102 -104.458 324.434C-111.635 324.776 -114.28 309.526 -105.261 308.474C-90.9102 306.8 -51.8664 304.315 -28.7076 304.996C-10.0801 305.544 6.83571 306.394 18.133 307.219C24.3886 276.408 37.3977 201.998 43.8828 186.789L100.644 200.112C94.4251 214.696 45.9824 320.389 39.2115 330.518C36.9593 334.173 32.6042 334.999 28.1911 334.094Z" fill="#B28B67"/>
<path fill-rule="evenodd" clip-rule="evenodd" d="M44.0653 186.829C70.7571 185.544 94.4235 191.098 115.065 203.494C114.517 240.748 130.086 259.24 120.659 314.342C78.5428 324.231 39.4832 281.186 -3.63298 290.349C-8.72817 262.18 21.2488 204.257 44.0653 186.829Z" fill="#FF9422"/>
<path fill-rule="evenodd" clip-rule="evenodd" d="M155.99 65.8661C155.018 57.5631 156.301 49.0412 161.666 42.1185C177.124 22.1723 203.187 46.2594 201.795 60.612C200.403 74.9646 181.82 101.308 173.232 98.2974C169.807 97.097 164.816 91.0915 161.033 83.0394L146.211 113.819L122.734 98.1225L155.99 65.8661Z" fill="#B28B67"/>
<path fill-rule="evenodd" clip-rule="evenodd" d="M165.1 69.8271C158.454 73.4673 151.616 74.9824 147.593 72.293C139.953 67.1847 141.347 53.3405 148.686 42.3607C148.944 41.9749 149.208 41.5968 149.477 41.2265C137.689 41.3675 124.154 48.1322 113.46 40.9823C98.9111 31.2549 112.744 -1.94586 133.071 11.6446C146.895 20.8872 152.348 27.4486 156.216 34.3463C159.55 31.8616 163.143 30.3011 166.576 29.8294C167.485 29.5925 168.653 29.5657 170.024 29.7338C170.881 29.81 171.716 29.9645 172.523 30.2001C176.925 31.2646 182.657 33.7714 188.508 37.3948C189.601 38.0715 190.657 38.7617 191.671 39.4594C195.288 34.0838 202.577 32.646 207.969 36.2511C213.371 39.863 214.824 47.1694 211.214 52.5703C207.722 57.7935 200.774 59.3217 195.434 56.1497C191.877 55.0876 187.641 53.2219 183.25 50.6938C182.632 52.5007 181.689 54.3916 180.373 56.3609C179.211 58.0998 177.786 59.8156 176.181 61.4518C175.993 59.7593 175.247 58.2376 174.01 57.4106C170.549 55.097 166.238 56.3324 164.219 59.3541C161.655 63.189 162.015 67.4439 165.1 69.8271Z" fill="#003049"/>
<path fill-rule="evenodd" clip-rule="evenodd" d="M156.936 218.176L166.27 262.298C171.852 270.849 175.791 278.804 178.088 286.163C178.305 288.266 177.793 291.674 173.292 286.986C168.791 282.298 163.845 277.57 161.706 278.623C159.567 279.676 160.732 284.259 157.398 285.28C155.175 285.96 154.249 278.45 154.62 262.75L137.713 227.64L156.936 218.176ZM35.3576 142.233L55.1016 155.546C16.501 186.835 -4.09347 203.361 -6.68166 205.124C-12.5051 209.091 -13.3972 220.466 -14.3857 226.239C-22.7788 224.811 -14.9334 214.564 -25.6179 212.907C-35.3703 211.394 -45.2209 213.882 -50.2704 202.833C-50.8912 201.474 -50.4081 198.245 -46.3281 198.197C-36.1632 198.077 -20.5274 196.428 -17.3298 194.582C-12.9693 192.064 4.59322 174.615 35.3576 142.233Z" fill="#B28B67"/>
<path fill-rule="evenodd" clip-rule="evenodd" d="M147.145 96.7707L156.276 100.842C146.828 145.504 150.051 193.98 165.945 246.27L117.824 260.78C110.092 196.288 116.708 139.507 147.145 96.7707Z" fill="#003049"/>
<path fill-rule="evenodd" clip-rule="evenodd" d="M42.6217 175.846L115.565 224.614C126.133 172.224 141.017 131.667 160.217 102.945L140.405 84.9553C104.521 101.207 76.7471 132.186 42.6217 175.846Z" fill="#DDE3E9"/>
<path fill-rule="evenodd" clip-rule="evenodd" d="M139.929 84.6602C139.935 84.6569 139.942 84.6537 139.948 84.6504L141.384 85.6107C143.064 86.819 145.61 88.6757 149.024 91.1811L144.183 109.931C132.362 128.833 110.689 168.365 79.1657 228.525L31.3502 196.557C28.8835 200.518 26.4739 204.57 24.1215 208.713L-11.4317 184.943C33.9951 128.495 84.4463 95.0589 139.922 84.6329L139.929 84.6602L139.929 84.6602Z" fill="#004265"/>
<path fill-rule="evenodd" clip-rule="evenodd" d="M67.6743 149.052C52.8773 174.134 45.1458 193.075 44.4798 205.876L31.1122 196.939C42.1521 179.156 54.3394 163.194 67.6743 149.052L67.6743 149.052Z" fill="black" fill-opacity="0.1"/>
<path fill-rule="evenodd" clip-rule="evenodd" d="M61.3743 174.677L92.2789 179.479L84.9517 190.44L61.3743 174.677Z" fill="white" fill-opacity="0.2"/>
</g>
<g clip-path="url(#clip3)">
<path fill-rule="evenodd" clip-rule="evenodd" d="M246.017 146.874C250.295 145.147 254.082 142.271 256.015 137.841C261.585 125.076 243.03 118.828 236.448 123.301C229.866 127.773 222.025 143.744 225.754 147.106C227.241 148.447 231.469 149.275 236.368 148.976L225.384 164.299L239.193 171.515L246.017 146.874Z" fill="#B28B67"/>
<path fill-rule="evenodd" clip-rule="evenodd" d="M234.832 111.489C235.643 110.633 236.862 110.175 238.032 110.461C238.316 110.53 238.589 110.641 238.842 110.787C238.933 110.839 238.945 110.879 239.022 110.837C239.079 110.806 239.141 110.688 239.184 110.639C239.317 110.485 239.459 110.338 239.611 110.202C240.13 109.739 240.761 109.419 241.425 109.218C242.667 108.843 244.067 108.868 245.274 109.371C245.934 109.646 246.507 110.076 246.997 110.593C247.25 110.861 247.481 111.15 247.696 111.449C247.761 111.539 247.933 111.904 248.029 111.936C248.134 111.971 248.456 111.832 248.567 111.812C249.939 111.573 251.302 111.909 252.517 112.555C253.887 113.285 255.177 114.046 255.886 115.485C256.036 115.789 256.166 116.105 256.279 116.424C256.339 116.593 256.393 116.763 256.439 116.936C256.467 117.04 256.493 117.145 256.515 117.25C256.552 117.429 256.514 117.462 256.704 117.45C257.432 117.403 258.154 117.58 258.757 117.996C259.115 118.244 259.428 118.553 259.702 118.889C259.796 119.004 259.967 119.355 260.095 119.424C260.221 119.492 260.595 119.446 260.752 119.466C261.597 119.574 262.394 119.909 263.076 120.419C263.778 120.945 264.373 121.645 264.802 122.409C265.009 122.776 265.164 123.145 265.225 123.562C265.251 123.742 265.265 123.925 265.309 124.103C265.335 124.207 265.421 124.345 265.408 124.452C265.416 124.388 266.449 124.506 266.541 124.527C267.033 124.64 267.461 124.893 267.812 125.253C268.471 125.932 268.849 126.877 269.097 127.774C269.224 128.234 269.298 128.708 269.323 129.185C269.334 129.413 269.335 129.642 269.325 129.87C269.32 129.981 269.29 130.107 269.303 130.215C269.32 130.355 269.366 130.382 269.471 130.494C270.004 131.063 270.396 131.76 270.575 132.519C270.757 133.286 270.714 134.092 270.48 134.842C270.467 134.886 270.384 135.055 270.396 135.09C270.412 135.137 270.55 135.192 270.597 135.224C270.758 135.333 270.913 135.452 271.06 135.58C271.332 135.816 271.577 136.081 271.789 136.372C272.614 137.504 272.87 138.952 272.653 140.317C272.425 141.749 271.688 143.142 270.574 144.083C270.394 144.235 270.203 144.373 270 144.493C269.875 144.566 269.853 144.555 269.837 144.692C269.82 144.845 269.845 145.015 269.838 145.17C269.816 145.675 269.724 146.174 269.579 146.657C269.34 147.449 269.013 148.241 268.498 148.896C268.259 149.2 267.977 149.472 267.652 149.685C267.487 149.793 267.311 149.886 267.128 149.961C267.033 150.001 266.936 150.035 266.838 150.064C266.782 150.081 266.716 150.088 266.663 150.112C266.534 150.171 266.561 150.081 266.524 150.247C266.474 150.48 266.495 150.747 266.469 150.986C266.441 151.232 266.405 151.476 266.362 151.72C266.274 152.213 266.161 152.703 266.003 153.178C265.698 154.091 265.206 154.975 264.404 155.54C264.061 155.782 263.665 155.944 263.251 156.015C263.048 156.049 262.842 156.062 262.636 156.054C262.53 156.05 262.413 156.011 262.332 156.073C262.244 156.139 262.215 156.346 262.177 156.452C261.852 157.372 261.444 158.303 260.751 159.009C260.112 159.66 259.24 160.072 258.333 160.174C256.575 160.371 254.849 159.406 253.849 157.99C253.589 157.621 253.374 157.22 253.217 156.797C251.928 157.42 250.388 156.575 249.433 155.706C248.244 154.625 247.639 153.089 247.66 151.497C246.235 152.102 244.587 150.803 244.584 149.337C244.583 148.978 244.658 148.622 244.778 148.286C244.842 148.109 244.944 147.95 245.012 147.777C245.099 147.557 245.066 147.281 245.091 147.037C245.141 146.563 245.256 146.106 245.473 145.68C245.587 145.458 245.727 145.257 245.863 145.048C245.985 144.86 246.027 144.648 246.097 144.436C246.42 144.679 246.901 144.809 247.287 144.88C247.666 144.951 248.111 144.846 248.468 144.724C249.297 144.442 250.009 143.877 250.615 143.261C251.947 141.91 252.754 139.875 251.597 138.147C251.059 137.342 248.8 136.163 247.796 135.898C246.741 135.618 244.583 137.142 244.428 137.31C244.332 137.414 244.27 137.572 244.117 137.595C243.78 137.645 243.537 137.126 243.436 136.88C243.262 136.455 243.222 135.99 243.215 135.535C243.199 134.545 243.293 133.542 243.495 132.574C243.651 131.827 243.884 131.095 243.975 130.335C244.065 129.579 243.983 128.818 243.583 128.154C243.148 127.432 242.524 126.845 241.951 126.235C241.384 125.63 240.856 124.978 240.587 124.183C240.527 124.008 240.475 123.828 240.449 123.645C240.429 123.501 240.46 123.261 240.38 123.135C240.256 122.938 239.855 123.072 239.65 123.089C238.638 123.174 237.653 123.516 236.758 123.984C235.867 124.45 235.082 124.935 234.317 125.575C233.749 126.049 233.187 126.742 232.485 127.007C232.172 127.126 230.635 126.493 230.26 126.051C229.886 125.609 229.616 124.829 229.621 124.43C229.626 124.023 229.772 123.649 230.026 123.332C230.175 123.146 230.36 122.996 230.513 122.816C230.641 122.665 230.761 122.522 230.926 122.409C231.239 122.194 231.621 122.121 231.993 122.202C231.817 121.713 231.732 121.193 231.756 120.674C231.781 120.134 231.885 119.518 232.086 119.016C232.248 118.609 232.518 118.24 232.904 118.018C233.308 117.786 233.82 117.764 234.274 117.724C233.967 117.046 233.78 116.318 233.701 115.58C233.546 114.143 233.807 112.57 234.832 111.489Z" fill="#191847"/>
<path fill-rule="evenodd" clip-rule="evenodd" d="M234.535 224L203.321 306.593L181.442 367.469H168.967L199.042 224L234.535 224Z" fill="#003049"/>
<path fill-rule="evenodd" clip-rule="evenodd" d="M242.249 224C242.588 252.34 242.343 290.494 243.134 292.261C243.661 293.438 260.053 306.857 292.312 332.516L285.882 343.45C247.584 318.752 227.456 304.758 225.497 301.467C222.56 296.532 207.805 251.112 200.128 224H242.249Z" fill="#004265"/>
<path fill-rule="evenodd" clip-rule="evenodd" d="M303.625 339.873L292.764 331.608L284.001 342.051C283.327 349.924 280.72 358.754 276.181 368.54L278.17 370.209L294.027 351.311L298.457 344.012L299.452 344.846L303.625 339.873Z" fill="#E4E4E4"/>
<path fill-rule="evenodd" clip-rule="evenodd" d="M182.6 379.155L181.951 365.522H168.318C161.854 370.066 153.414 373.745 143 376.558V379.155H167.669L176.108 377.856V379.155H182.6Z" fill="#E4E4E4"/>
<path fill-rule="evenodd" clip-rule="evenodd" d="M188.638 190.629L164.256 181.984C159.818 178.147 155.593 175.296 151.583 173.43C150.404 173.148 148.426 173.187 150.75 176.116C153.074 179.045 155.387 182.232 154.626 183.379C153.865 184.525 151.347 183.516 150.513 185.35C149.957 186.572 154.158 187.664 163.114 188.625L181.796 200.935L188.638 190.629ZM266.258 212.844L252.33 210C260.443 247.518 264.658 267.155 264.974 268.911C265.687 272.861 261.419 277.764 259.468 280.47C263.398 283.312 264.432 276.033 269.37 279.715C273.878 283.075 276.799 288.073 283.305 285.715C284.105 285.425 285.225 283.94 283.616 282.262C279.607 278.082 274.036 271.068 273.51 269.031C272.793 266.254 270.375 247.525 266.258 212.844Z" fill="#997659"/>
<path fill-rule="evenodd" clip-rule="evenodd" d="M237.324 160.77L226.276 159.229C218.539 182.949 200.73 195.243 169.082 183.239L158.227 213.601C187.993 223.92 217.369 217.257 229.768 185.243C232.978 176.956 235.961 168.257 237.324 160.77Z" fill="#D62828"/>
<path fill-rule="evenodd" clip-rule="evenodd" d="M243.359 158.722L226.062 159.067C220.152 187.463 207.336 203.698 198.351 223.61L242.94 232.89C242.067 240.235 240.909 247.73 239.525 255.388L272.911 262.336C273.724 220.508 264.237 186.042 244.451 158.938L243.37 158.713L243.359 158.722Z" fill="#FF4133"/>
<path fill-rule="evenodd" clip-rule="evenodd" d="M244.336 190.915C241.803 208.849 238.316 222.212 233.877 231.004L242.94 232.89C244.67 218.34 245.285 204.379 244.336 190.915L244.336 190.915Z" fill="black" fill-opacity="0.1"/>
</g>
<defs>
<clipPath id="clip0">
</clipPath>
<clipPath id="clip1">
<rect width="433" height="547" fill="white" transform="translate(-121.459 -66.6731) rotate(2.25687)"/>
</clipPath>
<clipPath id="clip2">
<rect width="288.938" height="313.734" fill="white" transform="translate(20.0776 0.234436) rotate(2.25687)"/>
</clipPath>
<clipPath id="clip3">
<rect width="161" height="372" fill="white" transform="translate(143 7)"/>
</clipPath>
</defs>
</svg>
