<svg width="619" height="462" viewBox="0 0 619 462" fill="none" xmlns="http://www.w3.org/2000/svg">
<path fill-rule="evenodd" clip-rule="evenodd" d="M47.258 167.173C50.1225 166.823 53.1799 166.947 55.8439 168.077C61.5085 170.482 63.1187 177.174 63.041 182.614C62.9573 188.468 61.7141 194.863 66.1651 199.58C68.2112 201.748 70.7563 203.408 72.7654 205.617C74.9122 207.977 76.5966 210.677 77.8438 213.577C80.1339 218.903 81.2578 225.167 79.1637 230.754C77.3199 235.674 72.6811 240.114 73.6834 245.708C74.729 251.543 80.6122 256.004 84.2904 260.351C88.4532 265.269 92.2859 271.556 92.9155 278.006C93.5193 284.188 90.8284 290.44 86.6988 295.113C78.4477 304.451 66.0452 309.028 53.5396 309C48.23 308.988 42.2186 308.748 37.6366 305.895C36.2204 305.013 35.4733 304.023 34.6315 302.648C33.8767 301.414 32.8796 300.612 31.7255 299.739C29.1899 297.822 27.3587 295.239 26.1901 292.347C21.6522 281.114 25.2792 267.218 31.6312 257.243C33.1364 254.88 34.3686 252.605 33.6374 249.789C32.8744 246.848 30.999 244.196 29.3403 241.669C27.7011 239.17 25.8299 236.787 24.5488 234.087C23.207 231.257 22.8292 228.294 23.0662 225.198C23.5118 219.381 26.0227 214.013 29.5777 209.336C33.0017 204.83 37.0221 200.518 37.0311 194.615C37.041 188.357 32.8577 182.791 34.6399 176.429C35.3778 173.795 36.86 171.092 39.2486 169.513C41.5393 167.998 44.5639 167.502 47.258 167.173Z" fill="#DDE3E9"/>
<path fill-rule="evenodd" clip-rule="evenodd" d="M45.3862 177.176C45.4399 176.336 46.4367 175.832 47.2215 176.051C48.2545 176.34 48.2346 177.305 48.2073 178.165C48.1237 180.808 48.5063 183.377 49.1417 185.942C50.4622 191.274 52.9027 196.186 54.8362 201.308C56.768 206.425 57.6748 211.709 56.5416 217.124C55.4732 222.23 53.7948 227.203 52.7015 232.315C51.7378 236.821 50.7123 241.573 52.1799 246.067C53.5921 250.393 56.7142 253.916 58.9625 257.825C63.6165 265.918 65.6813 274.896 65.9574 284.135C66.0854 288.425 65.9702 292.755 64.9749 296.963C64.402 299.386 63.6322 302.66 61.5559 304.333C60.5985 305.105 58.961 305.371 58.1552 304.229C57.3987 303.158 58.0624 301.499 58.3025 300.357C59.3427 295.413 59.5519 290.361 59.3029 285.342C59.0619 280.48 58.4874 275.626 56.9572 270.982C55.5369 266.673 53.3792 262.802 50.8398 259.032C48.2521 255.191 45.562 251.341 44.4928 246.789C43.4065 242.166 44.289 237.462 45.4691 232.927C46.7171 228.131 48.3518 223.472 50.0417 218.805C51.6886 214.258 52.2724 209.955 51.3632 205.196C49.5672 195.794 44.7598 186.968 45.3862 177.176Z" fill="#C5CFD6"/>
<path fill-rule="evenodd" clip-rule="evenodd" d="M122.892 178.582C126.437 179.659 129.958 181.395 132.485 184.118C137.858 189.909 136.209 198.661 133.243 205.053C130.05 211.933 125.212 218.849 127.94 226.743C129.193 230.372 131.301 233.659 132.49 237.316C133.761 241.224 134.309 245.294 134.239 249.372C134.11 256.862 132.118 264.855 126.708 270.373C121.945 275.232 114.158 278.07 112.377 285.206C110.518 292.651 115.061 300.988 117.078 308.041C119.36 316.024 120.533 325.453 117.862 333.409C115.303 341.034 108.842 347.028 101.528 350.406C86.9152 357.156 69.9487 356.117 55.2958 349.578C49.0748 346.801 42.1506 343.391 38.2845 337.633C37.0897 335.853 36.7364 334.294 36.476 332.23C36.2426 330.378 35.4972 328.911 34.6048 327.278C32.644 323.692 31.8618 319.684 32.0198 315.656C32.6345 300.011 44.2336 285.464 56.9562 276.972C59.9708 274.96 62.6181 272.912 63.2494 269.2C63.9086 265.325 63.1108 261.213 62.5012 257.361C61.899 253.554 60.9638 249.763 60.8888 245.902C60.8105 241.858 61.9334 238.157 63.8482 234.619C67.4453 227.972 73.2275 222.93 79.8696 219.247C86.2673 215.7 93.2616 212.692 96.3928 205.715C99.7118 198.32 97.7474 189.561 103.2 182.964C105.458 180.233 108.625 177.807 112.262 177.182C115.749 176.583 119.558 177.57 122.892 178.582Z" fill="#DDE3E9"/>
<path fill-rule="evenodd" clip-rule="evenodd" d="M115.651 190.811C116.154 189.844 117.584 189.769 118.387 190.44C119.443 191.324 118.914 192.456 118.432 193.46C116.95 196.547 116.052 199.789 115.452 203.159C114.204 210.166 114.485 217.262 114.063 224.341C113.642 231.414 111.935 238.147 107.774 243.965C103.85 249.452 99.2832 254.462 95.3274 259.943C91.8408 264.773 88.1533 269.863 87.5156 275.954C86.9012 281.817 88.7069 287.626 89.2882 293.434C90.4919 305.457 88.2042 317.171 83.6884 328.257C81.5911 333.405 79.1887 338.472 75.8211 342.933C73.8824 345.503 71.2673 348.977 67.9634 349.869C66.4399 350.281 64.3855 349.739 64.0415 347.964C63.7181 346.298 65.3628 344.682 66.2417 343.455C70.047 338.146 72.9376 332.273 75.2753 326.198C77.5399 320.314 79.4103 314.265 80.0529 307.963C80.6491 302.116 80.1532 296.401 79.1581 290.606C78.1443 284.701 77.0149 278.731 78.1486 272.781C79.2996 266.736 82.7953 261.628 86.5501 256.876C90.5215 251.85 94.8729 247.19 99.293 242.549C103.6 238.027 106.536 233.238 107.966 227.126C110.79 215.049 109.791 202.078 115.651 190.811Z" fill="#C5CFD6"/>
<path fill-rule="evenodd" clip-rule="evenodd" d="M13.306 223C19.2003 223 24.3823 226.124 27.9531 230.558C32.133 235.748 32.9772 242.086 34.6745 248.272C35.5191 251.35 36.9717 254.406 39.5174 256.498C41.8327 258.4 44.7721 258.78 47.5435 259.71C53.0822 261.567 57.5547 266.041 59.321 271.499C61.4758 278.158 59.1934 284.873 59.5864 291.622C59.9472 297.819 66.0576 301.685 70.9738 304.656C75.8215 307.586 80.1886 310.328 81.6487 316.035C83.1969 322.088 83.7164 328.844 81.5719 334.823C78.0015 344.779 67.5525 349.163 57.4561 349.842C48.2932 350.459 36.7719 349.491 29.8907 342.84C25.773 338.86 24.2819 333.293 24.4669 327.755C24.5818 324.311 25.264 320.899 26.146 317.571C26.7711 315.213 27.6157 312.864 27.8563 310.427C28.4959 303.942 22.5026 302.697 17.401 300.916C10.9183 298.654 6.37987 294.38 3.22399 288.425C0.285002 282.881 -0.948134 276.658 0.813701 270.554C1.71353 267.437 3.3456 264.61 5.55902 262.205C6.53336 261.146 7.90665 260.263 8.78608 259.151C9.60694 258.112 9.42823 256.766 9.14534 255.55C7.83732 249.931 3.76196 245.278 2.30451 239.668C0.988698 234.605 1.76655 228.304 6.39544 225.038C8.3953 223.627 10.8616 223.016 13.306 223Z" fill="#C5CFD6"/>
<path fill-rule="evenodd" clip-rule="evenodd" d="M21.3377 237.641C27.585 244.296 29.2831 253.325 29.7815 262.076C30.0606 266.983 29.7701 272.159 31.2118 276.919C32.4454 280.993 35.3373 284.107 38.3183 287.051C44.3188 292.975 51.0108 298.999 52.7659 307.574C53.7957 312.606 53.1006 317.804 54.5236 322.78C55.8175 327.304 58.0956 331.748 60.8665 335.568C63.0975 338.645 66.0042 341 68.443 343.867C69.1871 344.743 70.2529 346.031 69.9458 347.267C69.5865 348.714 67.7431 349.172 66.4352 348.945C63.3859 348.415 60.8191 345.503 58.8253 343.386C55.9098 340.291 53.4323 336.962 51.4187 333.227C49.1832 329.08 47.3833 324.679 46.6142 320.026C45.8161 315.199 46.2133 310.168 44.3909 305.535C41.3242 297.74 33.886 293.14 28.5082 287.064C21.8077 279.494 22.807 270.072 23.4933 260.759C23.8703 255.641 24.2451 249.862 21.6591 245.189C20.672 243.406 18.4711 241.743 18.0467 239.715C17.6579 237.858 19.7797 235.981 21.3377 237.641Z" fill="#AFB9C5"/>
<path fill-rule="evenodd" clip-rule="evenodd" d="M28 347C28.0004 385.058 34.2112 405 67.0001 405C99.789 405 106 385.058 106 347H28Z" fill="#89C5CC"/>
<g clip-path="url(#clip0)">
<path d="M339.119 407.754C339.119 407.754 346.072 369.901 309.408 349.638C272.743 329.374 271.02 329.612 263.77 327.294C259.611 325.868 255.332 328.839 260.146 334.901C264.959 340.962 262.225 342.507 271.852 345.181C281.479 347.855 282.964 359.621 287.778 362.533C292.591 365.444 296.81 366.217 311.547 372.575C324.917 378.339 336.326 394.621 336.326 400.385C336.326 406.149 349.4 408.051 349.4 408.051L339.119 407.754Z" fill="url(#paint0_linear)"/>
<path d="M337.812 402.465C337.812 402.465 347.142 367.643 315.053 348.806C282.964 329.968 271.733 330.206 265.375 327.948C261.75 326.641 271.733 331.157 275.893 336.743C280.052 342.329 279.042 341.081 286.589 345.24C295.324 350.054 298.949 354.748 304.06 355.699C311.487 357.125 309.289 364.85 322.184 370.674C333.831 375.962 335.316 390.105 335.316 395.453C335.316 400.801 346.726 402.584 346.726 402.584L337.812 402.465Z" fill="url(#paint1_linear)"/>
<path d="M370.138 397.355L373.763 393.908C375.487 392.304 377.626 391.115 379.943 390.521C391.293 387.55 426.947 376.378 441.744 349.4C441.863 349.162 441.744 348.865 441.506 348.746H441.447C441.387 348.746 441.328 348.687 441.268 348.687C436.336 348.33 410.962 347.914 377.032 376.854C376.437 377.329 375.843 377.923 375.368 378.517C374.536 379.706 373.11 381.726 372.456 382.796C371.565 384.341 373.347 386.956 370.97 389.273C368.593 391.591 363.483 397.355 363.483 397.355L367.643 400.445L370.138 397.355Z" fill="url(#paint2_linear)"/>
<path d="M350.826 395.097C350.826 395.097 360.571 307.982 334.009 280.588C309.527 255.392 309.17 278.567 309.229 282.489C309.229 282.846 309.348 283.143 309.467 283.44C315.231 294.196 317.252 306.615 315.172 318.619C312.676 331.216 330.681 329.552 332.226 341.972C333.771 354.391 340.07 373.526 339.417 382.32C338.763 391.115 338.703 399.672 338.703 399.672L348.508 399.969L350.826 395.097Z" fill="url(#paint3_linear)"/>
<path d="M350.707 395.394C350.766 395.215 350.826 394.978 350.885 394.799C351.479 389.095 359.68 307.031 334.009 280.588C309.705 255.511 309.348 278.211 309.467 282.311C309.527 282.786 309.764 283.262 310.002 283.678C311.785 286.292 319.807 297.702 326.938 296.394C346.607 292.888 329.255 316.539 339.951 329.196C348.508 339.179 345.656 373.645 345.002 382.499C344.586 387.49 343.754 392.363 342.507 397.236C342.269 398.484 343.101 399.672 344.289 399.91C344.349 399.91 344.408 399.91 344.467 399.91C344.646 399.91 344.765 399.969 344.943 399.969H346.726C347.795 400.029 348.746 399.494 349.221 398.543L350.707 395.394Z" fill="url(#paint4_linear)"/>
<path d="M360.274 400.445C360.274 400.445 361.997 376.319 376.081 361.582C380.003 357.541 384.994 354.748 390.461 353.5C394.68 352.549 401.573 349.162 407.575 337.872C407.575 337.872 418.925 321.827 430.275 316.955C441.625 312.082 430.275 311.488 430.275 311.488C430.275 311.488 397.83 317.668 377.032 336.683C375.724 337.872 374.358 339.001 372.872 339.952C367.464 343.636 352.549 357.541 353.203 398.127L360.274 400.445Z" fill="url(#paint5_linear)"/>
<path d="M388.441 398.484C388.441 398.484 388.916 395.572 385.054 395.631C381.667 395.75 324.382 395.334 324.382 395.334C324.382 395.334 321.708 395.334 321.887 397.355C322.065 399.375 330.741 447.092 331.573 448.102C331.929 448.696 332.523 449.172 333.236 449.35C334.306 449.647 374.536 449.41 374.536 449.41C375.487 449.291 376.2 448.518 376.259 447.567C376.2 447.627 388.56 399.078 388.441 398.484Z" fill="url(#paint6_linear)"/>
</g>
<g clip-path="url(#clip1)">
<path d="M484.373 99.2778L500.743 82.8756C503.497 80.117 507.963 80.1161 510.718 82.8735C510.719 82.8742 510.719 82.8749 510.72 82.8756L554.302 126.536C556.946 129.185 558.432 132.777 558.432 136.522V425.703" stroke="#CBCBCB" stroke-width="8"/>
<path d="M581.355 424.82H534.627C533.166 424.82 531.982 426.006 531.982 427.469V428.352C531.982 429.814 533.166 431 534.627 431H581.355C582.816 431 584 429.814 584 428.352V427.469C584 426.006 582.816 424.82 581.355 424.82Z" fill="#AFB9C5"/>
<path fill-rule="evenodd" clip-rule="evenodd" d="M494.219 89.6544C505.581 101.031 505.581 119.477 494.219 130.854L476.763 148.332L435.617 107.133L453.073 89.6544C464.435 78.2776 482.857 78.2776 494.219 89.6544Z" fill="#C5CFD6"/>
<path d="M452.834 131.316C464.196 142.692 475.221 150.098 477.459 147.858C479.697 145.617 472.301 134.577 460.939 123.201C449.576 111.824 438.551 104.418 436.313 106.659C434.075 108.899 441.472 119.939 452.834 131.316Z" fill="#F2F2F2"/>
</g>
<path fill-rule="evenodd" clip-rule="evenodd" d="M168.262 166.49C163.654 161.081 160.536 154.453 161.057 147.025C162.558 125.625 192.349 130.333 198.143 141.134C203.938 151.935 203.25 179.333 195.76 181.263C192.774 182.033 186.411 180.147 179.935 176.244L184 205H160L168.262 166.49Z" fill="#B28B67"/>
<path fill-rule="evenodd" clip-rule="evenodd" d="M184.464 128.685C181.301 128.167 172.784 127.81 171.213 127.81C170.21 127.81 169.122 128.039 168.527 127.118C168.041 126.363 168.219 125.087 168.074 124.211C167.905 123.193 167.665 122.189 167.423 121.187C166.733 118.337 165.69 115.625 164.231 113.079C161.493 108.302 157.481 104.56 152.417 102.383C146.824 99.9787 140.496 99.4282 134.48 99.9158C128.043 100.438 122.216 102.563 116.138 104.562C110.346 106.468 104.28 107.218 98.2219 106.288C92.1185 105.35 87.5068 102.042 82.3587 98.9023C77.0885 95.688 71.0657 93.5857 64.8354 94.069C59.0196 94.5203 53.6594 96.9216 48.8503 100.129C44.3509 103.131 40.6383 106.742 38.5422 111.824C36.2873 117.291 36.2894 123.292 39.9974 128.123C45.3721 135.127 55.3499 136.938 63.651 136.758C68.4525 136.654 73.1682 135.777 77.7014 134.183C83.7469 132.056 88.9712 128.452 94.627 125.528C97.2813 124.156 100.025 123.029 102.901 122.217C105.691 121.429 108.44 121.067 110.966 122.753C113.639 124.537 116.034 126.289 119.092 127.405C122.026 128.476 125.133 129.075 128.258 129.051C134.339 129.004 140.333 127.109 146.239 125.84C151.054 124.806 156.207 123.774 161.117 124.769C163.166 125.184 166.159 126.041 166.899 128.17C154.444 130.427 149.553 145.83 153.064 157.137C154.959 163.24 166.35 170.374 170.779 167.166C173.585 165.133 171.881 162.465 170.779 160.703C168.668 157.33 167.945 152.997 171.852 150.648C175.222 148.622 178.765 153.433 178.832 153.427C179.758 153.354 187.76 148.829 193.274 142.224C198.713 142.547 199.539 138.96 198.24 136.027C196.941 133.094 188.834 129.402 184.464 128.685Z" fill="#191847"/>
<path d="M150 462C192.526 462 227 429.093 227 388.5C227 347.907 192.526 315 150 315C107.474 315 73 347.907 73 388.5C73 429.093 107.474 462 150 462Z" fill="#C5CFD6"/>
<path fill-rule="evenodd" clip-rule="evenodd" d="M295.509 450.66C282.697 422.302 273.43 397.608 269.711 384.58C263.343 362.273 258.498 342.643 257.273 335.313C254.353 317.832 279.735 316.814 283.09 325.502C288.168 338.651 297.033 381.853 307.685 447.107L295.509 450.66ZM146.888 361.664C158.644 357.017 199.812 342.475 219.667 338.361C225.373 337.179 230.903 336.081 236.102 335.088C251.556 332.138 259.563 360.017 244.679 362.16C207.612 367.494 155.063 373.003 150.566 373.622C144.263 374.488 139.5 364.584 146.888 361.664Z" fill="#B28B67"/>
<path fill-rule="evenodd" clip-rule="evenodd" d="M245.587 327.416L182 295.047V288H189.562C251.08 303.676 282.515 313.722 283.869 318.138C283.883 318.185 283.897 318.233 283.909 318.281C283.94 318.321 283.97 318.362 284 318.403C296.192 335.17 303.493 417.027 305.889 423.156L282.528 426.641C273.591 393.503 245 370.418 245.759 330.729C245.554 329.565 245.503 328.461 245.587 327.416Z" fill="#003049"/>
<path fill-rule="evenodd" clip-rule="evenodd" d="M187.283 346.64C181.465 345.476 176.107 344.436 171.523 343.632C141.909 338.438 133.274 322.586 138.38 288H192.942C201.855 290.56 248.174 309.985 272.207 320.316C288.113 327.154 283.099 351.804 274.091 358.219C274.042 358.613 273.88 358.88 273.591 359C225.137 379.083 186.805 368.545 174 371.912L168.077 353.228L187.283 346.64Z" fill="#004265"/>
<path fill-rule="evenodd" clip-rule="evenodd" d="M150.908 358.694C147.733 358.997 145.479 359.474 144.147 360.124C142.526 360.915 140.293 362.338 137.446 364.395C138.364 366.275 146.605 383.173 162.171 415.088C167.169 414.282 169.149 412.375 168.112 409.367C167.075 406.359 166.239 403.849 165.603 401.835L164.615 373.15C164.596 372.598 164.133 372.166 163.581 372.185C163.572 372.185 163.562 372.186 163.553 372.186L159.14 372.463C156.633 370.434 154.979 368.598 154.177 366.955C153.526 365.62 153.167 363.514 153.098 360.637L153.098 360.637C153.071 359.533 152.154 358.659 151.05 358.685C151.003 358.686 150.955 358.689 150.908 358.694Z" fill="#E4E4E4"/>
<path fill-rule="evenodd" clip-rule="evenodd" d="M289.678 445.402C288.559 448.388 288 450.623 288 452.106C288 453.909 288.3 456.54 288.901 460C290.993 460 309.794 460 345.303 460C346.769 455.155 345.923 452.539 342.765 452.152C339.607 451.766 336.984 451.417 334.895 451.106L308.68 439.419C308.176 439.194 307.584 439.421 307.359 439.925C307.356 439.934 307.352 439.942 307.348 439.951L305.663 444.039C302.74 445.403 300.364 446.085 298.537 446.085C297.052 446.085 295.001 445.485 292.384 444.285L292.384 444.285C291.38 443.825 290.193 444.266 289.733 445.27C289.713 445.313 289.695 445.357 289.678 445.402Z" fill="#E4E4E4"/>
<path fill-rule="evenodd" clip-rule="evenodd" d="M244 260.617L280.235 244.704C286.582 238.379 292.711 233.572 298.623 230.282C300.39 229.719 303.41 229.549 300.188 234.255C296.966 238.961 293.789 244.056 295.076 245.705C296.364 247.355 300.093 245.534 301.566 248.216C302.549 250.004 296.262 252.143 282.707 254.633L255.57 275.439L244 260.617ZM97.5083 265L118 269.066C97.3921 307.471 86.3404 327.826 84.845 330.13C81.4804 335.315 84.6197 344.817 85.7793 349.821C78.5044 351.515 81.3734 340.565 72.1672 342.851C63.7641 344.938 56.6394 350.293 48.8039 343.071C47.8406 342.183 47.1354 339.407 50.4198 337.984C58.6026 334.437 70.692 327.796 72.6523 325.218C75.3256 321.702 83.6109 301.63 97.5083 265Z" fill="#B28B67"/>
<path fill-rule="evenodd" clip-rule="evenodd" d="M173.695 188.332L182.342 186.849C201.176 205.119 208.862 249.012 221.414 254.822C233.281 260.316 250.104 255 270.1 247.822L276.224 261.505C258.055 281.161 219.349 297.767 203.66 288.287C178.576 273.13 172.786 218.994 173.695 188.332Z" fill="#F77F00"/>
<path fill-rule="evenodd" clip-rule="evenodd" d="M136 297C170.672 297 196.176 297 212.511 297C216.008 297 215.349 291.952 214.843 289.404C209.011 260.004 186.241 228.312 186.241 186.461L164.172 183C145.917 212.358 139.605 248.505 136 297Z" fill="#DDE3E9"/>
<path fill-rule="evenodd" clip-rule="evenodd" d="M128.369 267.233C112.771 295.368 99.6609 315.623 89.0374 328L73 324.859C83.3306 260.791 113.247 213.504 162.748 183H166.731L171.486 183C191.299 250.537 196.761 295.537 187.872 318H119C120.09 301.563 123.583 284.181 128.369 267.233H128.369Z" fill="#FF9422"/>
<g clip-path="url(#clip2)">
<path fill-rule="evenodd" clip-rule="evenodd" d="M487.627 79.2993C492.433 73.6586 495.686 66.7457 495.142 58.9997C493.576 36.6812 462.508 41.591 456.465 52.8554C450.421 64.1199 451.139 92.6931 458.95 94.7064C462.065 95.5092 468.7 93.5425 475.454 89.4719L471.215 119.461H496.244L487.627 79.2993Z" fill="#B28B67"/>
<path fill-rule="evenodd" clip-rule="evenodd" d="M467.503 54.4891C470.9 56.3891 473.317 59.9493 476.227 64.6192C476.936 64.3406 477.707 64.1877 478.515 64.1877C481.971 64.1877 484.772 66.9892 484.772 70.445C484.772 72.1994 484.05 73.7851 482.887 74.9214C484.335 76.965 485.958 79.0999 487.817 81.3028C494.756 77.1398 499.917 65.0067 493.292 53.2938C487.591 29.832 455.291 44.3945 449.077 40.4376C447.719 48.9515 452.1 55.8164 467.503 54.4891Z" fill="#191847"/>
<path fill-rule="evenodd" clip-rule="evenodd" d="M497.252 210L446.065 339.556L411.734 449.084H398.177L450.662 210L497.252 210Z" fill="#997659"/>
<path fill-rule="evenodd" clip-rule="evenodd" d="M507.559 210C508.104 255.527 516.054 316.821 517.324 319.659C518.17 321.551 547.398 345.61 605.008 391.837L595.671 401.829C527.697 362.195 492.137 339.736 488.991 334.449C484.273 326.52 468.912 253.555 456.579 210H507.559Z" fill="#B28B67"/>
<path fill-rule="evenodd" clip-rule="evenodd" d="M606.257 388.501C609.393 389.61 611.553 390.661 612.738 391.655C614.178 392.864 616.079 394.868 618.44 397.667C617.038 399.338 604.435 414.358 580.631 442.726C575.777 440.649 574.255 438.22 576.063 435.438C577.871 432.656 579.351 430.326 580.502 428.449L588.739 399.671C588.898 399.118 589.475 398.797 590.029 398.956C590.038 398.958 590.048 398.961 590.057 398.964L594.452 400.358C597.502 398.937 599.639 397.496 600.864 396.036C601.86 394.85 602.755 392.81 603.551 389.915L603.551 389.915C603.856 388.804 605.004 388.152 606.115 388.457C606.163 388.47 606.21 388.485 606.257 388.501Z" fill="#E4E4E4"/>
<path fill-rule="evenodd" clip-rule="evenodd" d="M417.285 444.028C418.451 447.142 419.035 449.473 419.035 451.019C419.035 452.9 418.722 455.644 418.095 459.252C415.913 459.252 396.306 459.252 359.274 459.252C357.745 454.199 358.628 451.471 361.921 451.068C365.214 450.665 367.95 450.301 370.128 449.976L397.468 437.788C397.994 437.554 398.61 437.79 398.845 438.316C398.849 438.325 398.853 438.334 398.857 438.343L400.614 442.606C403.663 444.029 406.14 444.74 408.046 444.74C409.595 444.74 411.734 444.114 414.462 442.863L414.462 442.863C415.509 442.383 416.748 442.843 417.228 443.89C417.248 443.935 417.267 443.981 417.285 444.028Z" fill="#E4E4E4"/>
<path fill-rule="evenodd" clip-rule="evenodd" d="M462.836 437.803L398.381 430.807L446.15 210H503.881L462.836 437.803Z" fill="#003049"/>
<path fill-rule="evenodd" clip-rule="evenodd" d="M591.676 375.717L549.397 425.76C504.865 377.124 478.903 345.389 471.511 330.555C464.118 315.72 457.473 275.536 451.574 210H516.568C519.79 267.655 521.962 297.824 523.084 300.507C524.206 303.19 547.07 328.26 591.676 375.717Z" fill="#004265"/>
<path fill-rule="evenodd" clip-rule="evenodd" d="M403.157 197.393L372.508 227.101C363.59 230.88 356.283 235.053 350.587 239.62C349.306 241.156 347.912 244.097 353.938 242.781C359.965 241.465 366.364 240.349 367.497 242.297C368.629 244.244 365.292 247.228 367.385 249.776C368.781 251.476 373.474 246.071 381.466 233.564L413.337 214.894L403.157 197.393ZM553.033 170.507L529.341 170.596C547.386 228.681 556.965 259.094 558.077 261.834C560.581 267.998 555.283 277.387 553.017 282.432C560.396 285.713 559.61 273.563 568.919 277.866C577.415 281.793 583.878 288.909 593.694 282.891C594.901 282.151 596.224 279.366 593.028 277.189C585.067 271.765 573.595 262.273 572.045 259.149C569.932 254.888 563.594 225.341 553.033 170.507Z" fill="#B28B67"/>
<path fill-rule="evenodd" clip-rule="evenodd" d="M480.84 103.732L471.484 102.137C456.746 153.9 381.021 189.183 376.373 208.533C374.668 215.63 379.808 219.217 377.153 221.378L389.313 230.223C391.373 227.836 395.767 232.203 404.945 229.148C414.122 226.094 480.84 165.023 480.84 103.732Z" fill="#D62828"/>
<path fill-rule="evenodd" clip-rule="evenodd" d="M465.102 110.613C466.181 179.143 426.308 196.624 435.19 224.115C442.524 246.817 512.722 271.222 524.87 248.968C529.787 239.961 532.018 229.066 532.271 217.222C535.376 226.321 537.831 234.155 539.637 240.723C542.753 252.053 554.833 253.854 554.833 258.219L570.748 253.854C569.669 247.924 577.172 245.037 575.16 231.789C566.147 172.431 541.929 129.405 502.507 102.709L502.09 96.7863C501.924 94.4898 499.932 92.7583 497.635 92.9142L468.182 94.9605C465.884 95.1164 464.15 97.109 464.31 99.4074C464.31 99.4086 464.31 99.4099 464.314 99.4109L465.102 110.613Z" fill="#FF4133"/>
</g>
<path d="M303.5 88C325.868 88 344 69.8675 344 47.5C344 25.1325 325.868 7 303.5 7C281.132 7 263 25.1325 263 47.5C263 69.8675 281.132 88 303.5 88Z" fill="#F2F2F2"/>
<path d="M303.5 17.6981C304.766 17.6981 305.792 16.6718 305.792 15.4057C305.792 14.1396 304.766 13.1132 303.5 13.1132C302.234 13.1132 301.208 14.1396 301.208 15.4057C301.208 16.6718 302.234 17.6981 303.5 17.6981Z" fill="black" fill-opacity="0.1"/>
<path d="M271.406 49.7924C272.672 49.7924 273.698 48.7661 273.698 47.5C273.698 46.2339 272.672 45.2075 271.406 45.2075C270.14 45.2075 269.113 46.2339 269.113 47.5C269.113 48.7661 270.14 49.7924 271.406 49.7924Z" fill="black" fill-opacity="0.1"/>
<path d="M335.594 49.7924C336.86 49.7924 337.887 48.7661 337.887 47.5C337.887 46.2339 336.86 45.2075 335.594 45.2075C334.328 45.2075 333.302 46.2339 333.302 47.5C333.302 48.7661 334.328 49.7924 335.594 49.7924Z" fill="black" fill-opacity="0.1"/>
<path d="M303.5 81.8868C304.766 81.8868 305.792 80.8604 305.792 79.5943C305.792 78.3282 304.766 77.3019 303.5 77.3019C302.234 77.3019 301.208 78.3282 301.208 79.5943C301.208 80.8604 302.234 81.8868 303.5 81.8868Z" fill="black" fill-opacity="0.1"/>
<path fill-rule="evenodd" clip-rule="evenodd" d="M303.5 19.9905L305.028 46.7358H301.972L303.5 19.9905Z" fill="#AFB9C5"/>
<path fill-rule="evenodd" clip-rule="evenodd" d="M317.024 61.0243L302.976 49.1369L305.137 46.9755L317.024 61.0243Z" fill="#AFB9C5"/>
<path d="M303.5 50.5566C305.188 50.5566 306.557 49.1881 306.557 47.5C306.557 45.8119 305.188 44.4434 303.5 44.4434C301.812 44.4434 300.443 45.8119 300.443 47.5C300.443 49.1881 301.812 50.5566 303.5 50.5566Z" fill="#C5CFD6"/>
<path d="M216 93.7745C232.122 93.7745 245.192 89.2692 245.192 83.7116C245.192 78.154 232.122 73.6487 216 73.6487C199.878 73.6487 186.808 78.154 186.808 83.7116C186.808 89.2692 199.878 93.7745 216 93.7745Z" fill="#F2F2F2"/>
<path fill-rule="evenodd" clip-rule="evenodd" d="M250 90.6438C250 78.2936 234.778 68.2818 216 68.2818C197.222 68.2818 182 78.2936 182 90.6438" fill="#DDE3E9"/>
<path d="M217.717 0H214.283V71.5585H217.717V0Z" fill="#DDE3E9"/>
<defs>
<linearGradient id="paint0_linear" x1="258.014" y1="367.441" x2="349.388" y2="367.441" gradientUnits="userSpaceOnUse">
<stop stop-color="#C5CFD6"/>
<stop offset="0.51" stop-color="#DDE3E9"/>
<stop offset="1" stop-color="#C5CFD6"/>
</linearGradient>
<linearGradient id="paint1_linear" x1="292.249" y1="338.642" x2="344.174" y2="402.302" gradientUnits="userSpaceOnUse">
<stop stop-color="#C5CFD6"/>
<stop offset="0.51" stop-color="#E4E4E4"/>
<stop offset="1" stop-color="#C5CFD6"/>
</linearGradient>
<linearGradient id="paint2_linear" x1="352.064" y1="410.645" x2="423.45" y2="355.411" gradientUnits="userSpaceOnUse">
<stop stop-color="#DDE3E9"/>
<stop offset="0.51" stop-color="#C5CFD6"/>
<stop offset="1" stop-color="#DDE3E9"/>
</linearGradient>
<linearGradient id="paint3_linear" x1="370.004" y1="382.561" x2="308.691" y2="304.942" gradientUnits="userSpaceOnUse">
<stop stop-color="#C5CFD6"/>
<stop offset="0.51" stop-color="#DDE3E9"/>
<stop offset="1" stop-color="#C5CFD6"/>
</linearGradient>
<linearGradient id="paint4_linear" x1="309.46" y1="334.467" x2="352.601" y2="334.467" gradientUnits="userSpaceOnUse">
<stop stop-color="#C5CFD6"/>
<stop offset="0.51" stop-color="#DDE3E9"/>
<stop offset="1" stop-color="#C5CFD6"/>
</linearGradient>
<linearGradient id="paint5_linear" x1="348.875" y1="404.936" x2="395.605" y2="337.354" gradientUnits="userSpaceOnUse">
<stop stop-color="#C5CFD6"/>
<stop offset="0.51" stop-color="#C5CFD6"/>
<stop offset="1" stop-color="#DDE3E9"/>
</linearGradient>
<linearGradient id="paint6_linear" x1="321.957" y1="422.413" x2="388.49" y2="422.413" gradientUnits="userSpaceOnUse">
<stop stop-color="#F6B876"/>
<stop offset="1" stop-color="#F6B876"/>
</linearGradient>
<clipPath id="clip0">
<rect width="183.75" height="180.469" fill="white" transform="translate(258 269)"/>
</clipPath>
<clipPath id="clip1">
<rect width="149" height="354" fill="white" transform="translate(435 77)"/>
</clipPath>
<clipPath id="clip2">
<rect width="335.468" height="422" fill="white" transform="matrix(-1 0 0 1 619 40)"/>
</clipPath>
</defs>
</svg>
